<svg xmlns="http://www.w3.org/2000/svg" viewBox="0 0 200 200"><g fill="currentColor"><path d="M87.64 54.23a2.48 2.48 0 0 0 1.86-1.56c1.23-3.39-5.44-4.8-5.29-1a2.75 2.75 0 0 0 3.43 2.56zm13.23-2.88c-1.5-1.44-4.63-.85-4.58 1.43a2.72 2.72 0 0 0 2.28 2.76c1.99.28 3.85-2.71 2.3-4.19zm10.13-.72a2.3 2.3 0 1 0-1.38 3.81c2.17-.11 2.75-2.22 1.38-3.81zm-7.53 15.66a2.61 2.61 0 0 0-1.94-.28 23.47 23.47 0 0 0-7.1 2.68c-.13.08.15.31.23.28 1.48-.48 2.55.9 2.89 2.17a6.18 6.18 0 0 1-.55 4.22 6.75 6.75 0 0 0-.77 3.52 4.23 4.23 0 0 0 1.49 2.76c1.09.87 3.9 1 3.93 1a36.51 36.51 0 0 0 6.77-6c.1-.13-.18-.26-.21-.26-1.93.1-3.86-1.54-4-4.32-.01-1.86 1.09-4.49-.74-5.77zM104.7 75a3.64 3.64 0 0 0 3.3 1.76c-1 1.48-5.8 5.24-6.39 5.67 0 0-2.7-.33-3.73-1.17a4 4 0 0 1-1.3-3.19c.14-2.41 2.51-4.27 1.05-7.62a2.68 2.68 0 0 0-2.71-1.78 30.07 30.07 0 0 1 6.23-2.3 2.52 2.52 0 0 1 2.3.33c1.94 1.83-.73 5.02 1.25 8.3z"></path><path d="M101.12 70.68v-.15a3.57 3.57 0 0 0-1.15.13c0-.1-.23-1.38-.3-1.64a6.09 6.09 0 0 0 2.91.13c.1 0 .08-.2 0-.18a5.84 5.84 0 0 1-3.06-.3c-.1-.06-.23.07-.18.17.1.34.33 1.79.38 1.92a3.08 3.08 0 0 0-.84.41.12.12 0 0 0 .1.18 19.29 19.29 0 0 0 2.14-.67zm-.3 4.14c1.66-.08 1.53-.79 1.45-1.3-.13-.86-1.51-.87-2.32-.51s-1 1-.72 1.4 1.29.41 1.59.41zm-1.31-1c.33-.64 2.06-.87 2.43-.35s0 1-1 1.07a4 4 0 0 1-1.23-.13.44.44 0 0 1-.2-.64zm3.66 2.97h-2.64c-.45 0 0 2 .06 2.07a11.91 11.91 0 0 0-1.31.1c-.15 0-.1.23 0 .23s2.5-.13 3-.2c.13 0 .07-.21 0-.21h-1.38c0-.13-.33-1.71-.3-1.74s1.84 0 2.58-.1a.1.1 0 0 0-.01-.15zm19 73.87c-3.07.56-3.88.13-10.68 2.76-.12.05 0 .23 0 .23a8 8 0 0 1 4.34 4.8 10.3 10.3 0 0 1 .51 6.87 7 7 0 0 1-1.86 2.92.15.15 0 0 0 .15.25c7.43-.51 9.12-1 9.43-1.2 7.51-5.95.56-17.07-1.89-16.63zm4 13.39a9 9 0 0 1-2.25 2.93c-.53 0-1.85.53-4.52.87-3.7.48-3.33.26-4.47.44 4.09-3.36 1.92-12.82-3.11-14.74a42.54 42.54 0 0 1 10.35-2.55 8.68 8.68 0 0 1 4 5.39 10.78 10.78 0 0 1 .01 7.66z"></path><path d="M119.85 156.28c.1 0 .12-.18 0-.2a5.92 5.92 0 0 0-1.17-.18c-.23-.79-.51-1.58-.77-2.38a12.7 12.7 0 0 0 4.39.16.12.12 0 0 0 0-.23 18.28 18.28 0 0 1-4.55-.28c-.1 0-.23.07-.18.17.28.85.51 1.69.82 2.51a6.56 6.56 0 0 0-1.4 0 .14.14 0 0 0 0 .26 23 23 0 0 0 2.86.17zm-1.13 3.5a4 4 0 0 0 1.59.72c2.65.43 3-.46 2.91-1.15-.15-.87-1.15-1.31-1.89-1.56s-1.89-.77-2.71-.13a1.25 1.25 0 0 0 .1 2.12zm-.13-1.61a1.29 1.29 0 0 1 1.08-.48 4.24 4.24 0 0 1 1.1.28 3.68 3.68 0 0 1 1.91 1c.49.59.16 1.58-1.94 1.28a4.45 4.45 0 0 1-1.23-.41c-.61-.29-1.51-.9-.92-1.67zm2.2 3.83a.15.15 0 0 0-.15.15c0 .44-.1 2.3-.1 2.48a9.42 9.42 0 0 0-2 .08.13.13 0 0 0 0 .25c.34 0 3.86.28 4.22.33.13 0 .23-.15.1-.2a7.28 7.28 0 0 0-2.07-.44 12.75 12.75 0 0 0 .13-2.32c.54.05 3 .69 3.3.72.1 0 .12-.13 0-.21a21.1 21.1 0 0 0-3.43-.84zm-52.54 7.18a3.75 3.75 0 0 1 1.86-3.18c.16 0 .28-.23.1-.3a26.13 26.13 0 0 1-7.89-5.65 3.91 3.91 0 0 0-3.45 1.38 4.75 4.75 0 0 0-1 4c.18 1.59 1 2.91 1.48 4.42 1.91 6.64-1.13 8.48-2.07 8.3-.13 0-.08.36-.08.36a59.48 59.48 0 0 0 11.32 3c.15 0 4-2.17 2.81-6.13-.75-2.45-3.13-3.95-3.08-6.2zm2.75 8.69a5.41 5.41 0 0 1-2.43 3.22 41.38 41.38 0 0 1-5.84-1.09 45.59 45.59 0 0 1-4.85-1.48c1.44-.25 3.23-3 2.47-6.33a13 13 0 0 0-.61-2.28c-.93-2.15-2.19-4.53-1.33-7a4.08 4.08 0 0 1 1.51-2 4.19 4.19 0 0 1 2.35-.58 24 24 0 0 0 7.54 5.59 4 4 0 0 0-1.66 2.2C67 172 72.08 173.43 71 177.87z"></path><path d="M64.08 168.75a.1.1 0 0 0 .11-.16c-.26-.28-1.26-1-1.43-1.15.07-.2.84-2 1-2.4.82.69 1.66 1.36 2.51 2 .12.1.35-.08.2-.2l-2.63-2.23c-.1-.07-.23-.07-.28 0a22 22 0 0 0-1.13 2.55 23.13 23.13 0 0 0-2-1.45c-.16-.08-.23.15-.16.25s3.46 2.61 3.81 2.79zM63 172.5a4.84 4.84 0 0 0 3 1.25c1.78 0 1.79-2.07-.92-3.42a3.25 3.25 0 0 0-2.66-.51c-.62.23-.84 1.37.58 2.68zm-.69-2.22c.28-.53 2.06-.2 3.27.74.51.41 1.17.87 1.27 1.58.13 1-.76 1-1.68.75a4.78 4.78 0 0 1-2.43-1.49c-.32-.4-.74-1.02-.44-1.58zm2.97 4.72h-.23a19.72 19.72 0 0 0-1 2.7 15 15 0 0 0-1.87-1.17.12.12 0 0 0-.12.2c.23.23 3.16 2.48 3.32 2.53a.1.1 0 0 0 .12-.13 9.82 9.82 0 0 0-1.25-1.25c.18-.43.77-2.17.95-2.58 1 .92 2 1.87 3 2.76a.11.11 0 0 0 .15-.15c-.97-.91-2.02-1.91-3.07-2.91zm47.21-71.52c.1.08.2-.1.1-.18s-.07-.3 0-.41c.32-.22.83.09 1.36.18a3.26 3.26 0 0 0 .74.13.17.17 0 1 0 0-.33c-.77 0-1.31-.35-1.79-.31s-.82.69-.41.92zm2.12 1.25a3.77 3.77 0 0 0 .79-.23c.08-.07 0-.18-.07-.23a3.6 3.6 0 0 0-.82.16.16.16 0 1 0 .1.3zm1.39-.63c-.15 0 0-.23.13-.18a.64.64 0 0 1 0 1.17c-.1 0-.3-.15-.15-.2.38-.13.4-.74.02-.79zm-.45-1.1a.14.14 0 0 0 .26.07.58.58 0 0 0-.31-.87c-.11 0-.21.19-.1.26.44.15.15.43.15.54zm-4.31 1.63a.26.26 0 0 0 .25-.33s-.15-.31-1-.33c-.11 0-.21.19-.18.3s0 .16.08.16a1.4 1.4 0 0 1 .85.2z"></path><path d="M117.78 139.78c.07.05.94-.69 1-.71a19.52 19.52 0 0 0 2.17 2.88.93.93 0 0 0 .94.31c.25-.06.1-.38 0-.72a.64.64 0 0 0 .77.11c.44-.37-.15-.84-.38-1.23 0 0 .74.46 1 .33.77-.37-.79-1.45-1.38-2a2.62 2.62 0 0 0 .74 0c.33-.05.28-.39.13-.62a2.33 2.33 0 0 0-1.56-.63c0-.06.1-.16 0-.23-4.9-7.54-8.3-23-10.16-24.81a2.81 2.81 0 0 0-.07-2c.16 0 .29-.07.44-.09-.13.51 1.06 1.21 1.39 1.42s1 .3 1.15-.13a.93.93 0 0 0 1.41.41 2.41 2.41 0 0 0 .86.61.65.65 0 0 0 .82-.43.81.81 0 0 0 1 .1 2.12 2.12 0 0 0 .61-.89 1.28 1.28 0 0 0 1.48.15 1.15 1.15 0 0 0 .41-1.43c.84.17 1.16-.44 1-.82.1.18.38.15.54 0a2.13 2.13 0 0 0-.13-2 .59.59 0 0 0 .61-.3.59.59 0 0 0-.25-.64.85.85 0 0 0-.13-1.33.67.67 0 0 0 .46-.74 2 2 0 0 0-1.3-1.82 1.34 1.34 0 0 0-.23-1.63 2.4 2.4 0 0 0-1.74-.26c-.1-.43-.08-1.5-1.2-1.48a2.62 2.62 0 0 0-1.92 1.31 2.87 2.87 0 0 0-.23.89 12.22 12.22 0 0 0-5.74 1.1c-2.25 1-2.6 2.12-2 4.47a2.14 2.14 0 0 0-1.17.69 1.61 1.61 0 0 0-1.64-.79c-.64-.54-9.75-9.12-7.76-20.72 0-.18-2.63-2.25-3.53-3.4-.87 1.23-2.94 4.06-3 4.34-.41 6.37 4.62 15.23 6.33 16.86-.46-.07-6.79-.33-13.56-7.53h-.26c0-.62.26-2.76-.3-2.79-.26 0-.72.57-.74.67-.18-.33-.85-2-1.33-2s-.44.65-.36 1.15c0-.07-.71-.66-.89-.3s.15 1.05.15 1.07a.27.27 0 0 0-.31 0c-.3.23 0 .77.06 1a5 5 0 0 0 1.66 2.2s-.16.25-.13.35c1.63 9.58 8 12.49 9 13.06-3.73 2-9 7.89-9.73 8.68-.56.64-1.28 1.46-.84 2.33a44.09 44.09 0 0 0-9.58 14.43 22 22 0 0 0-.36 12c1 4.6 5 13.16 5 13.21a.65.65 0 0 0 .41.13c0 .13.26 1.76.28 1.86-.63.77-1 2.71-.79 2.91.56.57 2.17-1.4 2.48-1.73a1.4 1.4 0 0 0 .46-1.84c0-.16-.41-1.33-.41-1.43.26-.05 3.27-.64 4.62-1.1-.46-2.86-1.4-8.89-1.43-9-1-2.89-3.75-10.17 2.51-17 .1-.13.3.05.23.18a18.87 18.87 0 0 0-3.6 8.27 27.25 27.25 0 0 0 2.14 11c.54 1.07 9.2 13.38 9.43 13.36s.3-.18.38-.23a5.18 5.18 0 0 0 .69.82c-.79.89-.66 3.32-.61 3.39.25.39.76-.07.94-.25a17.64 17.64 0 0 0 1.65-2.78c.14-.7-.7-1.61-1.18-2.33 1.49-1 3.38-2.3 3.27-2.48-3.27-4.19-5-13.66-5-15.2 0-2 4.75-14.71 4.75-14.73a39.57 39.57 0 0 1 8.84-8.51c3.27 8.16 11.32 14.1 12.72 15.03zM75.83 162.9c0-.05-.23-1.25-.25-1.36.41 0 .92-.1 1.38-.17v.68a2.39 2.39 0 0 0-1.13.85zm17 3c.05.08.43.77.46.79a10.62 10.62 0 0 0-.89.69l-.67-.76c.27-.17.68-.43 1.09-.71zm28.05-28.1c1.38.23 1.61.69 1.58.69a5.93 5.93 0 0 1-1.1-.12c-.15-.06-.25.15-.15.25.36.33 1.76 1.76 1.81 1.81-.18 0-1.26-.79-1.5-.79s-.26.18-.18.28a10.66 10.66 0 0 1 1 1.41c0 .15-.95-.77-1.12-1s-.41 0-.29.23a13.31 13.31 0 0 1 .67 1.3c-.26-.05-.46-.31-.64-.48s-1.89-2.61-1.89-2.61a20.28 20.28 0 0 1 1.74-1.12.08.08 0 0 0 .06.16zm-13.4-30.1c.76-.32 1.18-.39 1.08-.59-.55-2.38-.38-3.46 2.27-4.39a11.58 11.58 0 0 1 5.34-.77 6.75 6.75 0 0 1 2.19 3.83 2.39 2.39 0 0 1-1.12 2c-.88.63-1.76.67-1.91 1.1s.25.69.1 1a1 1 0 0 1-.87.56 1.7 1.7 0 0 1-1.15-.53c-.23-.26-.43-.18-.74-.11s-2.5.41-3.07.64c0 0-.76-.81-3.5-1.2a3.76 3.76 0 0 1 1.38-1.54zm-1.73 1.86a7.25 7.25 0 0 1 3.6 1.13.17.17 0 0 0 .18 0s.69-.18 1-.23c.51.56.18 1.76.15 1.83a37 37 0 0 0-5.85-2c.38-.24.64-.5.92-.73zm-1-1.48c-.11.26.2.56.38.77l-1.1-.31c.26-.13.72-.43.75-.46zM79.9 94.39c0-.15.23.17.71.59.15.12.31-.08.23-.23a3.29 3.29 0 0 1-.69-1.51s.18 0 .21.08a9.22 9.22 0 0 1 .79 1 .17.17 0 1 0 .28-.18 3.2 3.2 0 0 1-.33-1.45c.07-.26.25 0 .3.15.36.67.72 1.3 1 2 .08.18.39 0 .31-.12-.11-.33.48-1 .5-.69v2.27a2 2 0 0 0-1.64.79c-.45-.43-1.88-2.09-1.67-2.7zm1.73 3.27a1.77 1.77 0 0 1 2.25-.92c6.87 7.84 14 7.64 14.13 7.66a9.61 9.61 0 0 0 3.06 1.94c-3.75.11-9.86 3.83-10.4 4.19a18.4 18.4 0 0 1-9.04-12.87zm22.28 24.24c0-.1-.23-.08-.18 0 .28.84.64 1.66 1 2.48a40.29 40.29 0 0 0-8.79 8.62c0-.37-6.22-1.51-15.94-11.47-.28-1 .76-1.81 1.33-2.42 5.49-5.94 12.56-11.5 20.58-12.44.52.23 2.33.86 2.74 1-.05 0-.77.48-1.08.71a.17.17 0 0 0 .06.33c.28.11 1.4.39 1.66.44a31.33 31.33 0 0 0-17.42 12.36c-.11.13.12.23.2.13 3.47-4.55 10.24-10.6 17.22-12.13-.26.23-.54.43-.82.66-.1.08 0 .23.08.26a28.87 28.87 0 0 1 6.15 2.19c3.12 6.08 3.24 10.74 7.13 19.21a48.85 48.85 0 0 0 2.86 5.52 12 12 0 0 0-2.68 2 37.94 37.94 0 0 1-14.1-17.45zm-2.07-107.31a.1.1 0 0 0 0 .2 10.37 10.37 0 0 1 8 4.52.13.13 0 0 0 .21-.15 9.4 9.4 0 0 0-8.21-4.57z"></path><path d="M194.92 160.27c-5.08-3.37-14.3-15.61-15-17l4.6 1.53a.26.26 0 0 0 .28-.38c-2.78-5.21-6.56-19.88-6.72-21.56a.25.25 0 0 0-.48-.08c-2.1 5-9.71 16.63-10.68 17.8a.27.27 0 0 0 .1.44c1.79.48 3.55 1 5.34 1.43a28.75 28.75 0 0 1-6 6.31c-2-4.52-4-9.05-6-13.57 1.58.31 3.16.62 4.72 1a.26.26 0 0 0 .28-.38c-2.12-4.53-4-9.15-6.08-13.75l3.78 1a.26.26 0 0 0 .31-.31 103.65 103.65 0 0 1-3.07-16.32.25.25 0 0 0-.46-.13c-2.55 3.4-10.37 11-11.29 11.73-.15.12-.05.35.11.41 1.78.74 3.57 1.45 5.36 2.19-2 3.3-9.55 9.84-10.52 10.4a.24.24 0 0 0-.06.38 9.5 9.5 0 0 0 5.29 2.15l-7 6.1a13.6 13.6 0 0 1-1.76-4.47l2.84-.41c.2 0 .22-.28.1-.4a26 26 0 0 1-5.55-8.89 14.53 14.53 0 0 0 5.34.15.25.25 0 0 0 .11-.41 42.9 42.9 0 0 1-9-11.16c2.17.38 4.31.79 6.49 1.12a.24.24 0 0 0 .26-.36c-2.78-4.64-6.7-18-6.95-19.46 0-.15-.28-.18-.33 0a73.25 73.25 0 0 1-6.9 12.36C116.45 85 107.94 65.42 106.56 62.2c1.23-.41 3.3-1.27 3.07-4.18a9.28 9.28 0 0 0 5.54-2.89c.59-.69 3.58-6.16 4.55-8.15 0-.08 15.63-2 28.53-6.82 1.3-.49 2.94-.92 3.45-2.38a4.15 4.15 0 0 0-.2-2.53c-.06-.15-2.28-3.14-20.87-8.68-2.15-.64-12-2.76-12.32-2.76a1.24 1.24 0 0 0 0-.92c-1.61-3.6-5.92-.61-7.89.13-1.46.53-10.91 3.86-26.95-.49-.71-.2-1.43-.48-2.15-.66 1.52-5.36 6.2-8.12 11.63-9.15s11.85-1 16.35 2.1a10.53 10.53 0 0 1 4.49 6.46c.05.31.52.18.46-.13-.8-4.26-4.83-8.24-11.39-9.17-4.93-.68-12.61 0-17.09 3.2A10.8 10.8 0 0 0 81 21.87c-3.93-.54-4.24 1.76-4 2-23.72 5.66-31.31 12.66-31.28 12.76a10.42 10.42 0 0 0 5.77 5.83c1.38.64 8.25 3 33.57 5.26a170.47 170.47 0 0 0 34.35-.82c-1.66 3.63-4.34 8-5.59 9.1-1.51 1.35-5.09 1.76-5.47 1.86a55.56 55.56 0 0 1-19.62-.31c-1.66-.38-4.85-1.3-6.13-2.42-.71-.67-5.23-6.26-6.43-7.92-.08-.1-.26 0-.18.1 1 1.48 6 7.69 6.61 8.15a12.64 12.64 0 0 0 3.4 1.61c0 2.43 2.09 4.34 4.14 5-1.41 3.81-14.48 37.91-17.32 44.73q-4.26-5.2-8.46-10.47c-.12-.15-.36 0-.38.15-.73 5.1-4.44 17.76-5 19.11a.22.22 0 0 0 .2.28 20.23 20.23 0 0 0 4.42-.87 47.73 47.73 0 0 1-7.28 10.22c-.1.13-.05.38.16.36 2.06-.21 4.16-.34 6.23-.51a75.66 75.66 0 0 1-7.71 8.17.19.19 0 0 0 .15.33c1.46-.18 2.94-.28 4.4-.43L57 139a62.09 62.09 0 0 1-6.69-5.39c1.17-.26 2.35-.49 3.52-.74.21 0 .23-.28.11-.44-1.61-1.94-10-13.74-10.4-14.86 1.46 0 2.91-.33 4.37-.41a.26.26 0 0 0 0-.51c.1 0-7.13-11.85-8-13.08a.24.24 0 0 0-.43 0c-.72 4.06-4.24 14.1-4.75 15.2a.25.25 0 0 0 .2.36 9.55 9.55 0 0 0 3.86-.74c-1.07 4.42-5.13 15.48-5.7 16.7-.07.18.06.39.26.33 1.17-.33 2.38-.69 3.55-1a116.92 116.92 0 0 1-4.65 14.4s-5.13-4.67-6.85-7.61a21.81 21.81 0 0 0 6 .16c.18 0 .34-.21.23-.39-2.82-4.64-8.76-17.19-9.37-18.59-.08-.21-.33-.11-.41 0-1.07 2.7-8.61 18-9.73 19a.22.22 0 0 0 .15.38c2.4-.29 4.8-.48 7.2-.74-2.7 5.42-13.1 17-14.43 18.11-.15.13.08.34.21.21 4.8-3.91 14-16.91 14.79-18.47a.23.23 0 0 0-.18-.33l-6.9.69c1.71-1.66 8.56-16.81 9.12-18.19 2.09 4.83 8.15 16.68 8.91 17.86a22.39 22.39 0 0 1-5.95-.26.25.25 0 0 0-.28.36 24.35 24.35 0 0 0 7.2 8.17c.11.08.44.13.49 0 1.81-3.68 4.75-13.84 5-15a.24.24 0 0 0-.29-.28l-3.44 1c1.83-4.19 5.33-15.51 5.64-16.81a.23.23 0 0 0-.33-.26 9.38 9.38 0 0 1-3.73.87c1.69-3.68 4.34-13.41 4.52-14.4 1.41 2.12 7.18 12 7.43 12.38a35.49 35.49 0 0 1-4.13.39.24.24 0 0 0-.23.33c.81 2.22 9.52 14 10.37 15l-3.58.77a.26.26 0 0 0-.1.44 56.19 56.19 0 0 0 7.53 6.07c.28.19.52-.25.26-.43 0 0 1.7-4.23 2.68-6.28a.19.19 0 0 0-.15-.28l-4.14.38a72.38 72.38 0 0 0 7.56-8.2c.1-.13.05-.35-.15-.33-2.07.2-4.11.33-6.18.48a46.91 46.91 0 0 0 7.25-10.37c.08-.15 0-.38-.23-.3a18.8 18.8 0 0 1-4.47 1c1.89-4.72 4.65-17.11 4.8-18.39q4.14 5.13 8.25 10.29C72.05 108.54 38.63 187 38.18 188c-.1.24.28.31.36.11 3.47-8.56 30.22-66 51.88-126 2 .58 9.73 1.89 15.79.23 28.4 69.78 54.23 124.09 54.63 125 .08.15.31 0 .23-.13-2.12-4.55-19.92-45.26-34.68-79.08a72.57 72.57 0 0 0 6.82-12c.86 5.16 5.87 17.4 6.54 18.6-2.18-.39-4.31-.81-6.49-1.13a.25.25 0 0 0-.28.36 41.13 41.13 0 0 0 8.94 11.37 13.49 13.49 0 0 1-5.06-.33.25.25 0 0 0-.31.3 26.28 26.28 0 0 0 5.49 9.15c-.86.13-1.76.23-2.63.38a.28.28 0 0 0-.18.31 14.58 14.58 0 0 0 2 5.11.27.27 0 0 0 .39 0c2.62-2.18 5.13-4.47 7.71-6.7a.24.24 0 0 0-.18-.4 9 9 0 0 1-5.29-1.84c3.32-2 10-9.63 10.55-10.63a.25.25 0 0 0-.15-.36l-5.26-2.07c3.22-2.63 10.09-10.3 10.68-11.06a106.72 106.72 0 0 0 2.88 15.37c-1.28-.33-2.57-.71-3.86-1a.27.27 0 0 0-.28.39c2.14 4.54 4.07 9.17 6.08 13.76-1.58-.3-3.16-.61-4.72-.94a.26.26 0 0 0-.28.38c2.23 4.73 4.3 9.49 6.33 14.31.06.12.26.17.33.07a29.2 29.2 0 0 0 6.62-6.92.26.26 0 0 0-.15-.38c-1.77-.49-3.55-1-5.32-1.43 3.35-4.19 9.66-15.69 10.14-16.79.59 5.6 5.65 18.93 6.36 20.26l-4.57-1.53c-.23-.08-.38.18-.28.38 2.71 5.54 11.8 15.07 15.48 17.6.48.06.69-.3.48-.45zM119.3 27.19c1.22.18 11.88 2.62 15.75 4.26a.38.38 0 0 1-.3.69c-1-.38-11.33-3.63-15.58-4.23a.37.37 0 0 1 .13-.72zm-41.88-3.71c.07-.31 1.58-2.15 5.64-.62.72.29 17.6 6.14 32.42-1.25.46-.23 2.53.46 2.53 2a2 2 0 0 1-1.23 1.58c-18.88 8.89-38.57-.48-38.9-.81-.18-.24-.54-.57-.46-.9zm33.23 24a199.62 199.62 0 0 1-45.31-2.35c-1.94-.32-8.77-1.47-11-2.05-4.4-1.13-7.16-3.75-8.12-6.1a13.56 13.56 0 0 0 2.94 1.43c4 1.48 12.15 3.68 28.81 4.6 21.42 1.5 53 .84 73.18-7.26.64 2.28-.08 3.08-2.35 3.91a148.14 148.14 0 0 1-38.15 7.78z"></path></g></svg>