<svg viewBox="0 0 307 40" fill="none"
  xmlns="http://www.w3.org/2000/svg">
  <circle cx="16.5" cy="18.5" r="14" fill="#49F2A1" stroke="#262328" stroke-width="5"/>
  <circle cx="46.5" cy="18.5" r="10" stroke="#49F2A1" stroke-width="3"/>
  <path d="M92.2305 24.1211C92.2305 25.1628 92.0417 26.0742 91.6641 26.8555C91.2865 27.6367 90.7396 28.2943 90.0234 28.8281C89.3203 29.349 88.4674 29.7396 87.4648 30C86.4622 30.2604 85.3359 30.3906 84.0859 30.3906C82.6667 30.3906 81.4492 30.2734 80.4336 30.0391C79.418 29.8177 78.526 29.4857 77.7578 29.043V25.8008C78.1615 26.0091 78.6107 26.2174 79.1055 26.4258C79.6003 26.6211 80.1211 26.7969 80.668 26.9531C81.2148 27.1094 81.7747 27.2396 82.3477 27.3438C82.9336 27.4349 83.513 27.4805 84.0859 27.4805C84.9323 27.4805 85.6484 27.4089 86.2344 27.2656C86.8333 27.1224 87.3151 26.9206 87.6797 26.6602C88.0573 26.3867 88.3307 26.0612 88.5 25.6836C88.6693 25.293 88.7539 24.8633 88.7539 24.3945C88.7539 23.9909 88.6888 23.6263 88.5586 23.3008C88.4284 22.9753 88.1875 22.6562 87.8359 22.3438C87.4974 22.0182 87.0286 21.6927 86.4297 21.3672C85.8307 21.0417 85.0625 20.6771 84.125 20.2734C83.1875 19.8698 82.3411 19.4727 81.5859 19.082C80.8438 18.6914 80.2122 18.2552 79.6914 17.7734C79.1706 17.2917 78.7669 16.7383 78.4805 16.1133C78.207 15.4753 78.0703 14.7201 78.0703 13.8477C78.0703 12.9362 78.2461 12.1289 78.5977 11.4258C78.9622 10.7096 79.4701 10.1107 80.1211 9.62891C80.7721 9.14714 81.5534 8.78255 82.4648 8.53516C83.3763 8.28776 84.3919 8.16406 85.5117 8.16406C86.7747 8.16406 87.9271 8.30078 88.9688 8.57422C90.0234 8.84766 91.0195 9.20573 91.957 9.64844L90.7266 12.5195C89.8802 12.1419 89.0078 11.8164 88.1094 11.543C87.224 11.2565 86.319 11.1133 85.3945 11.1133C84.0664 11.1133 83.0833 11.3346 82.4453 11.7773C81.8073 12.207 81.4883 12.8255 81.4883 13.6328C81.4883 14.0885 81.5599 14.4857 81.7031 14.8242C81.8594 15.1628 82.1198 15.4818 82.4844 15.7812C82.849 16.0807 83.3372 16.3867 83.9492 16.6992C84.5612 16.9987 85.3229 17.3372 86.2344 17.7148C87.1719 18.1055 88.0052 18.4961 88.7344 18.8867C89.4766 19.2773 90.1081 19.7201 90.6289 20.2148C91.1497 20.6966 91.5469 21.25 91.8203 21.875C92.0938 22.5 92.2305 23.2487 92.2305 24.1211Z" fill="#49F2A1"/>
  <path d="M107.522 30.3906C106.09 30.3906 104.781 30.1497 103.596 29.668C102.411 29.1862 101.389 28.4831 100.53 27.5586C99.6833 26.6341 99.0258 25.4883 98.557 24.1211C98.0883 22.7539 97.8539 21.1914 97.8539 19.4336C97.8539 17.6628 98.0688 16.0807 98.4984 14.6875C98.9281 13.2943 99.5336 12.1159 100.315 11.1523C101.096 10.1758 102.027 9.43359 103.108 8.92578C104.202 8.41797 105.406 8.16406 106.721 8.16406C108.01 8.16406 109.169 8.39844 110.198 8.86719C111.226 9.32292 112.099 9.97396 112.815 10.8203C113.531 11.6536 114.078 12.6628 114.455 13.8477C114.846 15.0195 115.041 16.3216 115.041 17.7539V19.9609H101.526C101.591 22.474 102.118 24.3229 103.108 25.5078C104.11 26.6927 105.595 27.2852 107.561 27.2852C108.225 27.2852 108.837 27.2526 109.397 27.1875C109.97 27.1224 110.517 27.0312 111.037 26.9141C111.571 26.7839 112.086 26.6276 112.58 26.4453C113.075 26.25 113.577 26.0352 114.084 25.8008V28.9648C113.564 29.2122 113.049 29.4271 112.541 29.6094C112.047 29.7917 111.532 29.9414 110.998 30.0586C110.478 30.1758 109.931 30.2604 109.358 30.3125C108.798 30.3646 108.186 30.3906 107.522 30.3906ZM106.643 11.1133C105.159 11.1133 103.98 11.6211 103.108 12.6367C102.248 13.6523 101.747 15.1302 101.604 17.0703H111.213C111.213 16.1849 111.122 15.3776 110.94 14.6484C110.771 13.9062 110.497 13.2747 110.12 12.7539C109.755 12.2331 109.286 11.8294 108.713 11.543C108.14 11.2565 107.45 11.1133 106.643 11.1133Z" fill="#49F2A1"/>
  <path d="M131.329 8.16406C131.707 8.16406 132.13 8.18359 132.598 8.22266C133.067 8.2487 133.471 8.29427 133.809 8.35938L133.341 11.6406C132.976 11.5755 132.598 11.5234 132.208 11.4844C131.83 11.4323 131.472 11.4062 131.134 11.4062C130.313 11.4062 129.565 11.5755 128.888 11.9141C128.21 12.2396 127.624 12.7148 127.13 13.3398C126.648 13.9518 126.27 14.694 125.997 15.5664C125.736 16.4258 125.606 17.3828 125.606 18.4375V30H122.052V8.55469H124.942L125.372 12.4805H125.528C125.854 11.9206 126.199 11.3802 126.563 10.8594C126.941 10.3385 127.358 9.88281 127.813 9.49219C128.282 9.08854 128.803 8.76953 129.376 8.53516C129.949 8.28776 130.6 8.16406 131.329 8.16406Z" fill="#49F2A1"/>
  <path d="M143.554 30L136.23 8.55469H139.902L143.788 20.4883C143.932 20.918 144.101 21.4714 144.296 22.1484C144.491 22.8255 144.687 23.5156 144.882 24.2188C145.077 24.9219 145.253 25.5859 145.409 26.2109C145.579 26.8359 145.689 27.3112 145.741 27.6367H145.878C145.943 27.3112 146.054 26.8359 146.21 26.2109C146.366 25.5859 146.542 24.9219 146.738 24.2188C146.933 23.5156 147.128 22.8255 147.323 22.1484C147.519 21.4714 147.688 20.918 147.831 20.4883L151.718 8.55469H155.39L148.066 30H143.554Z" fill="#49F2A1"/>
  <path d="M163.963 30H160.408V8.55469H163.963V30ZM160.134 2.75391C160.134 1.97266 160.33 1.40625 160.72 1.05469C161.124 0.703125 161.619 0.527344 162.205 0.527344C162.491 0.527344 162.758 0.572917 163.005 0.664062C163.266 0.742188 163.487 0.872396 163.67 1.05469C163.865 1.23698 164.015 1.47135 164.119 1.75781C164.236 2.03125 164.295 2.36328 164.295 2.75391C164.295 3.50911 164.086 4.07552 163.67 4.45312C163.266 4.81771 162.778 5 162.205 5C161.619 5 161.124 4.81771 160.72 4.45312C160.33 4.08854 160.134 3.52214 160.134 2.75391Z" fill="#49F2A1"/>
  <path d="M180.562 30.3906C179.247 30.3906 178.017 30.1888 176.871 29.7852C175.725 29.3685 174.729 28.7174 173.883 27.832C173.036 26.9336 172.372 25.7943 171.891 24.4141C171.409 23.0208 171.168 21.3477 171.168 19.3945C171.168 17.3503 171.415 15.6185 171.91 14.1992C172.405 12.7669 173.082 11.6081 173.941 10.7227C174.814 9.82422 175.829 9.17318 176.988 8.76953C178.147 8.36589 179.391 8.16406 180.719 8.16406C181.734 8.16406 182.724 8.27474 183.688 8.49609C184.664 8.71745 185.478 8.99089 186.129 9.31641L185.074 12.3242C184.775 12.194 184.443 12.0703 184.078 11.9531C183.714 11.8229 183.336 11.7122 182.945 11.6211C182.555 11.5169 182.171 11.4388 181.793 11.3867C181.415 11.3216 181.057 11.2891 180.719 11.2891C178.674 11.2891 177.184 11.9466 176.246 13.2617C175.309 14.5638 174.84 16.5951 174.84 19.3555C174.84 22.1029 175.309 24.1146 176.246 25.3906C177.197 26.6536 178.635 27.2852 180.562 27.2852C181.617 27.2852 182.568 27.168 183.414 26.9336C184.273 26.6862 185.055 26.3997 185.758 26.0742V29.2383C185.055 29.6159 184.299 29.9023 183.492 30.0977C182.698 30.293 181.721 30.3906 180.562 30.3906Z" fill="#49F2A1"/>
  <path d="M200.952 30.3906C199.519 30.3906 198.211 30.1497 197.026 29.668C195.841 29.1862 194.819 28.4831 193.959 27.5586C193.113 26.6341 192.455 25.4883 191.987 24.1211C191.518 22.7539 191.284 21.1914 191.284 19.4336C191.284 17.6628 191.498 16.0807 191.928 14.6875C192.358 13.2943 192.963 12.1159 193.745 11.1523C194.526 10.1758 195.457 9.43359 196.537 8.92578C197.631 8.41797 198.836 8.16406 200.151 8.16406C201.44 8.16406 202.599 8.39844 203.627 8.86719C204.656 9.32292 205.528 9.97396 206.245 10.8203C206.961 11.6536 207.508 12.6628 207.885 13.8477C208.276 15.0195 208.471 16.3216 208.471 17.7539V19.9609H194.955C195.021 22.474 195.548 24.3229 196.537 25.5078C197.54 26.6927 199.024 27.2852 200.991 27.2852C201.655 27.2852 202.267 27.2526 202.827 27.1875C203.399 27.1224 203.946 27.0312 204.467 26.9141C205.001 26.7839 205.515 26.6276 206.01 26.4453C206.505 26.25 207.006 26.0352 207.514 25.8008V28.9648C206.993 29.2122 206.479 29.4271 205.971 29.6094C205.476 29.7917 204.962 29.9414 204.428 30.0586C203.907 30.1758 203.36 30.2604 202.787 30.3125C202.228 30.3646 201.616 30.3906 200.952 30.3906ZM200.073 11.1133C198.588 11.1133 197.41 11.6211 196.537 12.6367C195.678 13.6523 195.177 15.1302 195.034 17.0703H204.643C204.643 16.1849 204.552 15.3776 204.37 14.6484C204.2 13.9062 203.927 13.2747 203.549 12.7539C203.185 12.2331 202.716 11.8294 202.143 11.543C201.57 11.2565 200.88 11.1133 200.073 11.1133Z" fill="#49F2A1"/>
  <path d="M225.169 30.3906C224.401 30.3906 223.704 30.306 223.079 30.1367C222.454 29.9674 221.887 29.7461 221.38 29.4727C220.885 29.1862 220.442 28.8542 220.052 28.4766C219.674 28.099 219.335 27.7018 219.036 27.2852H218.802C218.841 27.7279 218.88 28.151 218.919 28.5547C218.945 28.8932 218.971 29.2448 218.997 29.6094C219.023 29.9609 219.036 30.2409 219.036 30.4492V39.6094H215.481V8.55469H218.372L218.88 11.4453H219.036C219.335 10.9896 219.674 10.5664 220.052 10.1758C220.429 9.77214 220.865 9.42708 221.36 9.14062C221.868 8.84115 222.434 8.60677 223.059 8.4375C223.684 8.25521 224.387 8.16406 225.169 8.16406C226.393 8.16406 227.506 8.39844 228.509 8.86719C229.511 9.33594 230.364 10.0391 231.067 10.9766C231.783 11.901 232.337 13.0534 232.727 14.4336C233.118 15.8138 233.313 17.4154 233.313 19.2383C233.313 21.0742 233.118 22.6888 232.727 24.082C232.337 25.4622 231.783 26.6211 231.067 27.5586C230.364 28.4961 229.511 29.2057 228.509 29.6875C227.506 30.1562 226.393 30.3906 225.169 30.3906ZM224.485 11.1133C223.496 11.1133 222.656 11.263 221.966 11.5625C221.289 11.862 220.735 12.3177 220.305 12.9297C219.889 13.5417 219.576 14.3034 219.368 15.2148C219.173 16.1263 219.062 17.2005 219.036 18.4375V19.2383C219.036 20.5534 219.121 21.7253 219.29 22.7539C219.472 23.7695 219.772 24.6289 220.188 25.332C220.618 26.0221 221.184 26.5495 221.887 26.9141C222.591 27.2656 223.47 27.4414 224.524 27.4414C226.282 27.4414 227.571 26.7318 228.391 25.3125C229.225 23.8932 229.641 21.8555 229.641 19.1992C229.641 16.4909 229.225 14.4661 228.391 13.125C227.571 11.7839 226.269 11.1133 224.485 11.1133Z" fill="#49F2A1"/>
  <path d="M257.999 19.2383C257.999 21.0221 257.778 22.6107 257.335 24.0039C256.905 25.3841 256.28 26.5495 255.46 27.5C254.653 28.4375 253.67 29.1536 252.511 29.6484C251.352 30.1432 250.05 30.3906 248.605 30.3906C247.264 30.3906 246.027 30.1432 244.894 29.6484C243.761 29.1536 242.778 28.4375 241.945 27.5C241.124 26.5495 240.48 25.3841 240.011 24.0039C239.555 22.6107 239.327 21.0221 239.327 19.2383C239.327 17.4674 239.542 15.8984 239.972 14.5312C240.415 13.151 241.04 11.9922 241.847 11.0547C242.654 10.1042 243.637 9.38802 244.796 8.90625C245.968 8.41146 247.277 8.16406 248.722 8.16406C250.063 8.16406 251.3 8.41146 252.433 8.90625C253.566 9.38802 254.542 10.1042 255.363 11.0547C256.196 11.9922 256.84 13.151 257.296 14.5312C257.765 15.8984 257.999 17.4674 257.999 19.2383ZM242.999 19.2383C242.999 21.9596 243.442 24.0104 244.327 25.3906C245.226 26.7578 246.678 27.4414 248.683 27.4414C250.688 27.4414 252.127 26.7578 252.999 25.3906C253.885 24.0104 254.327 21.9596 254.327 19.2383C254.327 16.5169 253.878 14.4857 252.98 13.1445C252.094 11.7904 250.649 11.1133 248.644 11.1133C246.639 11.1133 245.193 11.7904 244.308 13.1445C243.435 14.4857 242.999 16.5169 242.999 19.2383Z" fill="#49F2A1"/>
  <path d="M278.603 30V16.1914C278.603 14.4987 278.258 13.2292 277.568 12.3828C276.891 11.5365 275.823 11.1133 274.365 11.1133C273.31 11.1133 272.425 11.2826 271.709 11.6211C270.992 11.9596 270.413 12.4609 269.97 13.125C269.541 13.7891 269.228 14.6029 269.033 15.5664C268.851 16.5299 268.759 17.6367 268.759 18.8867V30H265.205V8.55469H268.095L268.603 11.4453H268.798C269.124 10.8854 269.508 10.4036 269.951 10C270.407 9.58333 270.901 9.23828 271.435 8.96484C271.969 8.69141 272.535 8.48958 273.134 8.35938C273.733 8.22917 274.345 8.16406 274.97 8.16406C277.353 8.16406 279.143 8.78906 280.341 10.0391C281.552 11.276 282.158 13.2617 282.158 15.9961V30H278.603Z" fill="#49F2A1"/>
  <path d="M306.883 8.55469V10.7617L303.035 11.2891C303.4 11.7448 303.706 12.3307 303.953 13.0469C304.201 13.75 304.324 14.5508 304.324 15.4492C304.324 16.4388 304.168 17.3568 303.855 18.2031C303.556 19.0365 303.094 19.7591 302.469 20.3711C301.857 20.9831 301.095 21.4648 300.184 21.8164C299.272 22.1549 298.211 22.3242 297 22.3242C296.714 22.3242 296.427 22.3242 296.141 22.3242C295.854 22.3112 295.62 22.2852 295.438 22.2461C295.216 22.3763 294.995 22.526 294.773 22.6953C294.565 22.8516 294.37 23.0339 294.188 23.2422C294.018 23.4505 293.875 23.6849 293.758 23.9453C293.654 24.2057 293.602 24.4922 293.602 24.8047C293.602 25.1562 293.68 25.4427 293.836 25.6641C293.992 25.8724 294.201 26.0352 294.461 26.1523C294.734 26.2695 295.053 26.3477 295.418 26.3867C295.783 26.4258 296.167 26.4453 296.57 26.4453H300.008C301.219 26.4453 302.241 26.6016 303.074 26.9141C303.908 27.2135 304.585 27.6237 305.105 28.1445C305.639 28.6654 306.023 29.2839 306.258 30C306.492 30.7031 306.609 31.4518 306.609 32.2461C306.609 33.3919 306.395 34.4206 305.965 35.332C305.548 36.2435 304.904 37.0117 304.031 37.6367C303.159 38.2747 302.052 38.763 300.711 39.1016C299.383 39.4401 297.814 39.6094 296.004 39.6094C294.611 39.6094 293.393 39.4727 292.352 39.1992C291.31 38.9258 290.444 38.5286 289.754 38.0078C289.064 37.487 288.543 36.8555 288.191 36.1133C287.853 35.3841 287.684 34.5573 287.684 33.6328C287.684 32.8516 287.807 32.1615 288.055 31.5625C288.315 30.9766 288.66 30.4688 289.09 30.0391C289.52 29.6094 290.014 29.2578 290.574 28.9844C291.147 28.7109 291.74 28.5026 292.352 28.3594C291.805 28.112 291.355 27.7214 291.004 27.1875C290.652 26.6536 290.477 26.0417 290.477 25.3516C290.477 24.5573 290.685 23.8737 291.102 23.3008C291.518 22.7148 292.176 22.1484 293.074 21.6016C292.514 21.3672 292 21.0482 291.531 20.6445C291.076 20.2279 290.685 19.7591 290.359 19.2383C290.047 18.7044 289.799 18.125 289.617 17.5C289.448 16.875 289.363 16.2305 289.363 15.5664C289.363 14.4076 289.526 13.3724 289.852 12.4609C290.177 11.5495 290.659 10.7747 291.297 10.1367C291.935 9.4987 292.729 9.01042 293.68 8.67188C294.63 8.33333 295.737 8.16406 297 8.16406C297.482 8.16406 297.977 8.20312 298.484 8.28125C299.005 8.34635 299.441 8.4375 299.793 8.55469H306.883ZM291.043 33.5156C291.043 33.9974 291.128 34.4466 291.297 34.8633C291.466 35.2799 291.74 35.638 292.117 35.9375C292.508 36.237 293.016 36.4714 293.641 36.6406C294.279 36.8229 295.066 36.9141 296.004 36.9141C298.426 36.9141 300.236 36.5365 301.434 35.7812C302.645 35.0391 303.25 33.9648 303.25 32.5586C303.25 31.9596 303.172 31.4714 303.016 31.0938C302.859 30.7161 302.599 30.4167 302.234 30.1953C301.883 29.987 301.414 29.8438 300.828 29.7656C300.242 29.6875 299.526 29.6484 298.68 29.6484H295.242C294.786 29.6484 294.311 29.7005 293.816 29.8047C293.322 29.9089 292.866 30.1042 292.449 30.3906C292.046 30.6771 291.707 31.0677 291.434 31.5625C291.173 32.0703 291.043 32.7214 291.043 33.5156ZM292.84 15.4492C292.84 16.9466 293.191 18.0599 293.895 18.7891C294.598 19.5182 295.594 19.8828 296.883 19.8828C298.185 19.8828 299.168 19.5247 299.832 18.8086C300.509 18.0794 300.848 16.9401 300.848 15.3906C300.848 13.7891 300.503 12.6107 299.812 11.8555C299.135 11.1003 298.146 10.7227 296.844 10.7227C295.555 10.7227 294.565 11.1133 293.875 11.8945C293.185 12.6758 292.84 13.8607 292.84 15.4492Z" fill="#49F2A1"/>
</svg>
