<svg xmlns="http://www.w3.org/2000/svg" fill="none" viewBox="0 0 14 14" height="48" width="48">
  <path fill="currentColor" fill-rule="evenodd" d="M1.75 1.5C1.61193 1.5 1.5 1.61192 1.5 1.74999V1.75L1.50003 4.08325H4.08334V1.5H1.75ZM0 4.83325L3.5759e-05 4.82585L0 1.75001V1.75C0 0.783502 0.783502 0 1.75 0H4.83334H9.16669H12.25C13.2165 0 14 0.783502 14 1.75V4.83325V9.1665V12.25C14 13.2165 13.2165 14 12.25 14H9.16669H4.83334H1.75012C0.783624 14 0.00012207 13.2165 0.00012207 12.25L8.6356e-05 9.178C2.88537e-05 9.17418 0 9.17034 0 9.1665C0 9.16267 2.87643e-05 9.15884 8.60888e-05 9.15502L3.59312e-05 4.84067L0 4.83325ZM1.50009 9.9165L1.50012 12.25C1.50012 12.3881 1.61205 12.5 1.75012 12.5H4.08334V9.9165H1.50009ZM4.08334 8.4165H1.50008L1.50004 5.58325H4.08334V8.4165ZM5.58334 9.9165V12.5H8.41669V9.9165H5.58334ZM8.41669 8.4165H5.58334V5.58325H8.41669V8.4165ZM9.91669 9.9165V12.5H12.25C12.3881 12.5 12.5 12.3881 12.5 12.25V9.9165H9.91669ZM12.5 8.4165H9.91669V5.58325H12.5V8.4165ZM12.5 1.75V4.08325H9.91669V1.5H12.25C12.3881 1.5 12.5 1.61193 12.5 1.75ZM8.41669 1.5V4.08325H5.58334V1.5H8.41669Z" clip-rule="evenodd"></path>
</svg>
