<svg xmlns="http://www.w3.org/2000/svg" viewBox="0 0 400 400"><g transform="matrix(2,0,0,2,0,0)"><g fill="#DDD"><path d="M76.66 129.11a19.5 19.5 0 0 0-.52-2.32c-.11-.29-.32-.39-.57-.25 0 0-.32-2.09-.46-2.54.51-.32.23-.78-.2-1.06 1.35-3.15.86-7.14.31-9.19-.76-3.47-1.64-7.55-2.77-12.24a12.47 12.47 0 0 1-4.32.27c-.82-6.38-1.85-13.17-2.94-19.52-3.89-1.19-4.54-.43-8.65-2.94-.88 7-.35 12.92-1.26 20.29l-2.94-1.51c-.44 8.93-.67 18.33 2.14 22.9a.89.89 0 0 0 .58 1.28v2c-.38-.2-.82-.3-1 0s0 .82 0 1.16c-.06 1.24-1.8 1.37-1.91 2.6-.08.77.64 1.06 1.28 1.12a15.16 15.16 0 0 0 5.44-.62c.34-.13.82-.14 1-.47a1.08 1.08 0 0 0 0-.59 16.84 16.84 0 0 0-.51-2.32.44.44 0 0 0-.33-.32c0-.38-.06-1.94-.07-2.34 1-.23 1.17-.77.46-1.42a7.21 7.21 0 0 0 .51-.86 7.58 7.58 0 0 0 .77-3.19c.17-3.82.25-5.73.24-5.93a25.5 25.5 0 0 1 1-7.85c-.16-.65-1.3-6.36-1.67-8.57-.31-2.5-.69-3.53-2.62-5.24a.09.09 0 0 1 .13-.13c2.12 1.8 2.62 2.68 2.92 5.43.19 1.15 3.09 13.24 3.7 15.17 2.62 8.26 3 7.12 3.32 9.32a6.06 6.06 0 0 0 2.67 4.47c-.39.83-.1 1.12.64 1.2a6.48 6.48 0 0 1 .26.79c-.74 0-.44.93-.46 1.38-.06 1.24-1.8 1.36-1.91 2.6-.08.77.64 1.06 1.28 1.12a15.18 15.18 0 0 0 5.44-.62 3.09 3.09 0 0 0 1-.48 1.32 1.32 0 0 0 .02-.58zm-17.75-4c.17-.05.2.2.24.35s.32 1.37.39 1.79c0 .16.16.55 0 .7a13.26 13.26 0 0 1-4.1.76 9.83 9.83 0 0 1-2.3 0c-1.16-.21-.52-1.27.12-1.66a4.87 4.87 0 0 1 .77.63.08.08 0 0 0 .13-.08 5.63 5.63 0 0 0-.63-.75 2.88 2.88 0 0 0 .33-.28 7.21 7.21 0 0 1 .88.68.05.05 0 0 0 .09-.05 7 7 0 0 0-.75-.88c.05-.07.17-.32.19-.36s1.07.41 1.14.85c0 .07.13.05.12 0a2 2 0 0 0-1.18-1.19v-.94c0-.16 0-.16.16-.16a1.25 1.25 0 0 1 .26.07 2.17 2.17 0 0 1 1.26 1.14c.09.19.17.56.41.62a15.46 15.46 0 0 0 2.47-1.2zm-.14-.24s-2.09 1-2.15 1-.25-.4-.35-.55a6.55 6.55 0 0 0-.83-.91s-.11-1.73-.1-2.08a6.55 6.55 0 0 0 1.81.28 7.63 7.63 0 0 0 1.59-.11c.01.44 0 2.01.03 2.41zm-.15-3.9c.6.35-3.41.41-3.68.28a.07.07 0 0 1 0-.13 28.9 28.9 0 0 0 3.68-.12zm16.64 5.73a7.09 7.09 0 0 1-1.86.82 6.76 6.76 0 0 0-.93-1.27c-.15-.13-.81-.51-.81-.52a5.44 5.44 0 0 0-.29-.86 17.81 17.81 0 0 0 3.49-.76c.14.44.38 2.41.4 2.63zm-4.46-2.95c-.1 0-.07-.18 0-.17a7.55 7.55 0 0 0 3.41-.62.06.06 0 0 1 .06.1 4.39 4.39 0 0 1-3.47.73zm5.56 5.83a13.26 13.26 0 0 1-4.1.76 10.4 10.4 0 0 1-2.3 0c-1.16-.21-.52-1.27.13-1.66a5.33 5.33 0 0 1 .76.62c.05.09.18 0 .13-.08a4.77 4.77 0 0 0-.63-.74c.11-.09.23-.18.33-.28a7.15 7.15 0 0 1 .89.67c0 .06.11 0 .08 0a7.62 7.62 0 0 0-.75-.87c0-.08.17-.32.19-.36a6.48 6.48 0 0 1 1.14.85c0 .06.13.05.12 0 0-.29-1.13-1.18-1.17-1.19s0-.78 0-.95 0-.15.16-.15a.84.84 0 0 1 .26.07 2.16 2.16 0 0 1 1.26 1.13c.09.2.17.56.41.62a5.55 5.55 0 0 0 2.41-1.19 8.76 8.76 0 0 1 .68 2.79zM43.3 49.69l2.54-.19a.36.36 0 0 0-.05-.72l-2.51.22a.36.36 0 0 0 .02.69z"></path><path d="M59.52 45.35a1 1 0 0 0-1.38-.27 1.69 1.69 0 0 0-.83-.16 33.66 33.66 0 0 0-4.55.14 1.72 1.72 0 0 0-1.21-.52c-.55 0-5 .25-5.17.32-.22-.21-.45-.47-.76-.47H45c-.18 0-.17.26 0 .27a1.63 1.63 0 0 1 .95.21c1.46 1.25 1.13 3 .5 4.46a1.62 1.62 0 0 1-1.56 1.22c-.37.07-8.43 1.2-10 1.34a5.53 5.53 0 0 0 .52-1.29s5.48-.6 6.52-.6a.36.36 0 0 0 .33-.38.34.34 0 0 0-.37-.34c-1 .06-5.31.48-6.37.64a7 7 0 0 0-1.23-4.59c1.1-.06 6.09-.17 6.56-.34a.15.15 0 0 0 0-.28c-.49-.12-6.69.35-6.71.39a3.54 3.54 0 0 0-.46-.72 60.47 60.47 0 0 0-7.49.17A7.58 7.58 0 0 0 25 51.18c.41 1.49 1.34 3.21 3.15 2.88.67-.06 5.53-.53 5.72-.72a5.9 5.9 0 0 0 .9-1.26c1.59-.11 10.82-1.17 11.31-1.61a4.09 4.09 0 0 0 .92-1.74c1.15-.14 4.57-.48 5.1-.6a1.09 1.09 0 0 0 .72-.7l5.06-.36a.48.48 0 0 0 .6-.44c.7.37 1.43-.63 1.04-1.28zm-32.45 8.23c-.84-.33-1.31-1.46-1.58-2.26a7.28 7.28 0 0 1 .38-5.46c.12-.24.26-.47.4-.7s.14-.25.26-.29a4.82 4.82 0 0 1 .76 0 6.82 6.82 0 0 0 .39 8.82 2.06 2.06 0 0 1-.61-.11zm6.66-.58c-.15.15-5.45.63-5.7.65a6 6 0 0 0-.31-8.83c.41 0 5.73-.18 5.91 0a6.77 6.77 0 0 1 1.59 5.2A10.62 10.62 0 0 1 33.73 53zm18.67-5.6a.75.75 0 0 1-.27.36c-.14.09-3.83.45-5 .57a3.83 3.83 0 0 0-.44-3.15c.12 0 4.31-.42 4.9-.38 1.35.01 1.35 1.68.81 2.6zm5.74-.88c-.08.22-.16.23-.38.25s-3.83.31-4.81.34a2.18 2.18 0 0 0 0-1.75c.93 0 4.79-.26 5-.14.42.28.34.89.19 1.3zm1.22-.59c-.07.36-.49.73-.84.46a1.22 1.22 0 0 0-.18-1.14.81.81 0 0 1 .95.14c.15.11.12.36.07.54zm24.07 44.9A.92.92 0 0 0 82.9 92a.91.91 0 0 0 1.23 0 2.68 2.68 0 0 1-.7-1.17zm-1.17 1a.47.47 0 0 0 0 .93.47.47 0 0 0 0-.93z"></path><path d="M92.33 86.8c-.23-.57-3.2-6.06-3.51-6.62a.14.14 0 0 0-.19-.06c-.81.54-4 2.79-4.8 3.3-.18.11 0 .39.16.28a39 39 0 0 0 4.62-3.13c.57.79 3.58 6.44 3.33 6.73-1.66 2-10.64 8.39-10.8 8.32s-2.51-6.54-3.39-8.62a21.71 21.71 0 0 0 3-1.78c.14-.1 0-.34-.14-.24-1 .68-2.14 1.22-3.2 1.85a.16.16 0 0 0-.05.21c1.05 2 3.26 8.76 3.66 8.83a.72.72 0 0 0 .45-.11c.24-.13 10.19-7.45 10.49-7.85s.54-.7.37-1.11z"></path><path d="M83.93 89.63c-.48.34-2.59 1.39-3.12 1.63-.17.09-.25.17-.18.37s1.1 2.54 1.12 2.55a.28.28 0 0 0 .41.11 31.44 31.44 0 0 0 3.21-2.15c.15-.26-.92-1.9-1.28-2.47a.12.12 0 0 0-.16-.04zM85 92l-3 2c-.17-.49-1.1-2.51-1.1-2.49s2.61-1.4 3-1.67A20.53 20.53 0 0 1 85 92zm-3.9-1.68c-.09-.27-1.41-2.49-1.69-3 0 0-.06 0 0 0 .24.53 1.35 2.87 1.54 3.08s.18.03.15-.08zm-.55-3.54c.26.51 1.34 2.85 1.52 3.07s.3 0 .26-.15-1.42-2.47-1.7-3c-.03-.02-.1.02-.08.08zm3.89 1.11a27.55 27.55 0 0 0 1.45 2.81.12.12 0 0 0 .18-.11 25.8 25.8 0 0 0-1.51-2.76c-.04-.08-.16-.01-.12.06zm.56-3.76c.43.87 2.12 4.8 2.42 5.14.07.09.19 0 .17-.1-.07-.43-2-4.25-2.45-5.13-.02-.04-.14-.04-.14.09zm1.54-.04c0-.09-.18 0-.13.08.31.63 1.46 3.48 1.67 3.72a.13.13 0 0 0 .22-.09c-.04-.32-1.46-3.08-1.76-3.71zm2.64 3.04a.11.11 0 0 0 .21-.08c-.18-.74-1.43-3.6-1.74-4.33a.05.05 0 0 0-.1 0c.26.77 1.26 3.74 1.63 4.41zM70.67 36c-1.36-.67-2.84-.41-3.32.56-1 2.41 3.63 4.7 4.91 2.41.47-.97-.26-2.36-1.59-2.97z"></path><path d="M67.43 39.29c-3.76-1.43-10 0-7.82 3.26A5 5 0 0 0 58.35 45c0 .15.2.22.24.07a4.39 4.39 0 0 1 1.28-2.2c.71.65 1.86.75 3.32.87 2.18.14 3.74-.23 5.93.44a8 8 0 0 0-3.39.54 13.64 13.64 0 0 1-2.24 7A4.16 4.16 0 0 0 58.27 49a6.45 6.45 0 0 1 0-2.1c0-.13-.18-.19-.21-.06a7 7 0 0 0-.06 2.23c-2.1 1.06-2.73 4.73-1 6.61 1.47 1.6 4 1.23 5.49.58a6.11 6.11 0 0 0 2.78-2.75c1.67-3.19.08-6.46 1.45-7.11a1.45 1.45 0 0 1 1.56.25 1.45 1.45 0 0 1-.91 1.67v.09A1.35 1.35 0 0 0 68.56 47a2.22 2.22 0 0 1 .22.66 26.2 26.2 0 0 1-.78 4.49 3.53 3.53 0 0 0 .07 1.74c.05.12.27.12.26 0a9.44 9.44 0 0 1 .38-3.73 13.86 13.86 0 0 0 .29-2.69c1.72-1.73 2.37-3.95 1.65-5.65a5.1 5.1 0 0 0-3.22-2.53zm-6.25 12.83a1.17 1.17 0 0 1-1.7.17.19.19 0 0 1 .28-.27.89.89 0 0 0 1.33 0c.04-.02.12.06.09.1z"></path><path d="M60.18 46.52h-.09a8.13 8.13 0 0 1-.86 1.09c-.35.54.44.75.83.85a2.37 2.37 0 0 1-.62-.61 10.24 10.24 0 0 0 .74-1.33zm2.63.23a.11.11 0 0 0 .14-.08.76.76 0 0 0-1.22-.81.8.8 0 0 0-.29.47.06.06 0 0 0 .11 0 .6.6 0 1 1 1.17.24.13.13 0 0 0 .09.18zm4.63 15.8a7 7 0 0 0-.55-3 3.6 3.6 0 0 1 .57-3.23c.07-.09 0-.22-.13-.13a3.62 3.62 0 0 0-.85 3c.11.63.42 1.18.56 1.8a7.1 7.1 0 0 1 .11 1.66.68.68 0 1 0 .33-.09zM40.88 45.69c.45.2.82-.36.87-.41a.51.51 0 0 0 .53.44 1.61 1.61 0 0 0 1.17-.8.78.78 0 0 0 1 .6c.42-.11.52-.67.59-1.06.17-.89-.9-1.08-1.35-.44-.19-.67-1-.41-1.38 0-.29-.56-1.12-.09-1.34.31s-.57 1.11-.09 1.36zm2.85-1.4c.12-.51 1-.7 1.06 0 0 .41-.25 1.12-.77 1s-.37-.77-.29-1zm-1.15-.23c.2-.15.67-.33.77 0 .16.54-.62 1.41-1.28 1.33-.31-.22.39-1.25.51-1.33zM41 45a1.16 1.16 0 0 1 .8-.95h.27c.26.41-.91 1.48-1.06 1.38s-.08-.33-.01-.43zm15.19 14.05c1-.74 1.92-2.17.32-2.82l.89-.48c.17-.08 0-.34-.15-.25-3.61 1.77-6.66 4.47-10 6.6-.44-2.43-1.42-8.57-1.52-9.2 0-.81-.58-.73-1.21-.81 0-.07 0-.94-.06-1.15s-.27-.17-.26 0 .05 1.08.05 1.13a15 15 0 0 0-2.12 0s-.06-.64-.07-.8 0-.1-.1-.1a.11.11 0 0 0-.1.1v.82l-.6.06a.2.2 0 0 0-.19.14c-.89 4-.53 8-.13 12.05a11.25 11.25 0 0 0 .42 2.52 3.07 3.07 0 0 0 1.51 1.75c3.44 1.79 7.91.59 11.08-1.32-.71 6-1.44 12-2.13 18-.37 3.25-.63 6.52-1.32 9.73-.13.57-.29 1.09.14 1.58a13.09 13.09 0 0 0 3 2.51c.1 0 .21-.08.12-.16a30.77 30.77 0 0 1-2.55-2.3c-.62-.56-.37-1-.19-1.74.64-3 .89-6.09 1.26-9.15.72-7.76 1.86-16.13 2.28-23.62-.17 1.62-.62 4.84-.64 4.85a26.09 26.09 0 0 1-5 2c-2.29.55-6.07.41-7.15-2.07a8.54 8.54 0 0 1-.47-2.34 33.83 33.83 0 0 1 .12-12c1.14-.08 3.62-.1 3.73-.08.26 0 .28.19.31.39s1.18 7.23 1.51 9.55c0 .1.15.14.23.09 3.15-1.79 5.87-4.22 9-6.05.86.2 1.22.86.65 1.6a6 6 0 0 1-1.75 1.42 6.58 6.58 0 0 0-2.43 2.34.58.58 0 1 0 .32.33c.63-1.38 2.11-2.17 3.2-3.12z"></path><path d="M69.27 52.61a2 2 0 0 0-.82-1.23c-.11-.09-.27.06-.16.16.36.33 1 .92.64 1.45s-.8.66-1.15 1a10.72 10.72 0 0 0-1.84 2.24c-1.18.92-4.68 3.51-4.76 3.47s-.88-2.45-1.11-3.25a.14.14 0 0 0-.27.08c.26.9.54 1.8.85 2.7.09.24.18.8.51.86A32.78 32.78 0 0 0 65.51 57a14.49 14.49 0 0 0-1.27 5.7A5.72 5.72 0 0 1 58 61.26a25.6 25.6 0 0 0 .71-5.57c0-.13-.22-.13-.21 0a18.92 18.92 0 0 1-.71 5.07c-.86 3.38-.73 6.87-.91 10.32s-1.15 7.06.09 10.41c.08.19.39.12.33-.1a15.32 15.32 0 0 1-.48-5.56c1.64 1.3 3.56 2.54 5.74 2.42a3.21 3.21 0 0 0 1.8-.53c.25 2.79.53 5.59 1 8.36 0 .15.27.12.26 0-.46-7.89-3.18-22.67.67-29.53a13 13 0 0 1 2.31-2.76c.3-.34.71-.66.67-1.18zm-11.34 9a5.56 5.56 0 0 0 6.3 1.39c-.11 1.37-.18 2.73-.22 4.09-1.55 1.18-3.64.78-5.2-.18a2.89 2.89 0 0 1-1.33-1.28s.2-2.74.45-4.06zm-.53 4.49c1.3 1.83 4.94 3.1 6.61 1.13-.05 1.8 0 3.59 0 5.38-2.41 1.21-4.86-.14-6.78-1.64.1-1.52.17-4.77.17-4.87zm6.92 11.35c-2.79 1.19-5.26-.32-7.49-2 .11-1.39.3-2.77.39-4.16 1.79 1.45 4.63 3 6.82 1.54.06 1.58.15 3.1.28 4.62z"></path><path d="M84.43 84.47a9.56 9.56 0 0 1-1.2-2.47 2.4 2.4 0 0 0 .18-2.17c-.5-1.83-1-3.67-1.53-5.49a52.56 52.56 0 0 0-4.1-10.4 13 13 0 0 0-3.36-4c-.65-.51-1.34-1-2-1.43a5.32 5.32 0 0 0 .78-3.1 1.2 1.2 0 0 0-1-1.11c.19-2.42-1.55-3.3-3.62-3.79-.21-.06-.22.28 0 .34 1.27.38 2.78.91 3.26 2.29.12.37 0 .79.19 1.16a9.12 9.12 0 0 1-1 .13c-.13 0-.13.2 0 .21.45 0 .93-.2 1.37-.08s.63.67.66 1.1a5.25 5.25 0 0 1-.81 2.67 17.61 17.61 0 0 1-2.8-2.12c-.07-.08-.18 0-.11.11 2.11 2.53 5.39 3.74 7.3 6.46 3.59 5.2 5.15 11.47 6.66 17.53.4 1.49-1 2.36-2.3 2.47a2.05 2.05 0 0 1-1.25-.09 9.62 9.62 0 0 1-1.2-2.4c-.77-1.83-1.53-3.67-2.3-5.51-2.19-5.66-3.9-4.66-7.31-8.58-.06-.07-.16 0-.1.1a23.15 23.15 0 0 0 3 2.94 10.76 10.76 0 0 1 1.15 1.1A127 127 0 0 0 76 98.94c.18.71.1 1.07-.7 1.3-1.19.45-2.41.88-3.56 1.41a.18.18 0 0 0 .14.33c1.12-.35 2.22-.83 3.31-1.26s1.45-.73 1.15-1.87a128.42 128.42 0 0 1-3.25-28.44 12.08 12.08 0 0 1 2.49 4.13q1.22 2.84 2.42 5.67a22.07 22.07 0 0 0 1.13 2.52 1.41 1.41 0 0 0 1.18.49 1.73 1.73 0 0 1-.55 1c-.19.2-.5.54-.29.83.46.46 1.31.27 1.83 0 .26.86.79 2.71 1.79 2.92a.57.57 0 0 0 .57-.77c.45 0 .7-.45.6-.84.32.09.57-.24.57-.55a3.15 3.15 0 0 0-.4-1.34zm.18 1.42c-.23.67-1.07-.77-1.26-1h-.07a5.86 5.86 0 0 1 .66 1.17.89.89 0 0 1 0 .58c-.22.66-1-1-1.4-1.43a4.32 4.32 0 0 1 .81 2c-.08.34-.39.17-.56 0a7.57 7.57 0 0 1-1.28-2.61.14.14 0 0 0-.22-.09 1.9 1.9 0 0 1-1.53.12l.12-.18a2.14 2.14 0 0 0 .71-1.38 3.93 3.93 0 0 0 2.41-1 18.83 18.83 0 0 0 1.37 2.73 1.8 1.8 0 0 1 .24 1.09zM132.48 98a7.09 7.09 0 0 1-1.19-2c-.11-5.19 1.77-10.15 1.84-15.32l.26-.08c.44-10.33 1-20.94-2-30.95a10 10 0 0 1-2.13 1.22c1 4.06.67 8.26.68 12.39q-.1 9.07-.26 18.13c.55-.11 2.7-.49 3.16-.61-.24 4.83-1.81 9.51-1.9 14.36a2.55 2.55 0 0 1-3.29.47c0-.64-1.66-12.53-1.76-13.43.66-.16 1.7-.39 3.51-.74 0-6.28.06-12.56.17-18.84.07-3.87.25-7.81-.58-11.61a11.47 11.47 0 0 1-2.07.62 290.6 290.6 0 0 0-2.06 30.81l.76-.18c.21 1.72 1.73 12.13 1.2 16.56-.09.8 0 1.37.64 1.54.44 0 1-.55 1.21-1.47a3.61 3.61 0 0 0 2.49 2.21 3.39 3.39 0 0 0 3.45-1.38 7.37 7.37 0 0 1-2.13-1.7zM117.9 57.18c-1.79 7.35-3.19 14.78-4.4 22.25a17.31 17.31 0 0 0 4.33 2.15c.09-1.73.25-3.46.42-5.18.94-8.34 1.33-16.9 4.18-24.87a11.08 11.08 0 0 1-2.83-1.1c-.6 2.23-1.16 4.49-1.7 6.75z"></path><path d="M136.67 60.75C135.51 51 135 49.38 132.72 46.1c-1.75 3.41-6.9 3.82-8 3.66a10.21 10.21 0 0 1-6.58-3c-4.36 8.12-7.77 21.34-8.09 29.61a17.18 17.18 0 0 0 2.46 2.39c.15 2.3 2 16.65 2.08 17.5a7.45 7.45 0 0 1-3.59 4.66 3.4 3.4 0 0 0 3.45 1.38A3.61 3.61 0 0 0 117 100c.26.92.77 1.51 1.2 1.47.68-.16.74-.74.65-1.54-.35-2.76 1.92-16.75 2.08-17.68a26.43 26.43 0 0 0 3.61.17 192.6 192.6 0 0 1 2.07-30.81 10.09 10.09 0 0 1-3.91-.07c-3 9.74-3.26 20.06-4.44 30.13a19.92 19.92 0 0 0 2.32.53c-.32 1.86-2 13.47-2.13 14.17a2.47 2.47 0 0 1-3.34.24C115 95.84 112.93 80 112.85 79l.29.22a270.54 270.54 0 0 1 6.13-28.95 11.08 11.08 0 0 1-1.39-1c-.1-.08 0-.22.14-.14a11 11 0 0 0 12.69.4 14.65 14.65 0 0 0 2.45-2 .06.06 0 0 1 .1.07 9.32 9.32 0 0 1-1.66 1.82c3.24 10 2.81 20.69 2.08 31a5.82 5.82 0 0 0 1.54-.89 6.9 6.9 0 0 0 1.86-2.26c.31-5.9.5-6.41-.41-16.52zm17.84-47.01a2.22 2.22 0 0 0-2.2-1.11c-1.39.06-2.77.21-4.16.36a5.87 5.87 0 0 0-1.35 2.11c-.69.1-3.48.33-4.16.4a.15.15 0 1 0 0 .29c.69-.1 3.37-.37 4-.38a4.84 4.84 0 0 0 .42 4.37c-1.1.18-10 .67-10.29.54-1.06-.69-.81-2.42-.36-3.41a.82.82 0 0 1 .75-.42 15.47 15.47 0 0 0 1.8-.19c.17 0 .1-.28-.07-.25-.34.05-1.63.13-1.93.16a1 1 0 0 0-.7.38 33.94 33.94 0 0 0-4.32.52 1.87 1.87 0 0 0-.43.36c-1.3.08-3.93.27-3.94.28-1.37-.87-2.43 1.24-1.65 2.32a1.09 1.09 0 0 0 2-.21s2.44-.14 3.63-.22a2.44 2.44 0 0 0 2.1.67 15.88 15.88 0 0 0 2.43-.24 1.21 1.21 0 0 0 .79.61c.29.06 8.9-.34 10.3-.68.47.72 1.13 1.45 2.08 1.25.55-.06 2.78-.12 3.34-.14a1.67 1.67 0 0 0 1.13-.34 6.64 6.64 0 0 0 1.12-2.16 5.57 5.57 0 0 0-.33-4.87zm-27.17 6.53a.83.83 0 0 1-1-.3 1.48 1.48 0 0 1 .15-1.94.79.79 0 0 1 1-.08 1.28 1.28 0 0 0 .33 1.79 1 1 0 0 1-.48.53zm7.8-.47c-1.11.05-2.68.66-3.43-.47a2.05 2.05 0 0 1 0-1.54 2.53 2.53 0 0 1 1.95-.67c.83-.09 1.66-.12 2.48-.22a3.82 3.82 0 0 0-.13 2.82 4.8 4.8 0 0 0-.87.08zm13.8 1.2c-.88 0-1.52-1.2-1.86-1.92a5.55 5.55 0 0 1 1.12-5.77l3.65-.39a5.4 5.4 0 0 0 .6 7.92c-.18.02-3.26.16-3.51.16zm5.13-1.13a1.29 1.29 0 0 1-1.34.95 5.64 5.64 0 0 0-.56-7.92c2.35-.32 3.13 2.73 2.77 4.55a8.76 8.76 0 0 1-.87 2.43zm-27.85 1.63c-.1-.24-.8-1-.87-1.31a.08.08 0 0 0-.16 0c.06.22.79 1.36.79 1.45s-.63.44-.85.54v.08c.45.03 1.3-.18 1.09-.76zm-1.44 2.28c-1 .84-1.86-.47-2-.63a.15.15 0 0 0-.27.08c0 .23 1.14 1.69 2.36.71.13-.07 0-.23-.09-.16zm-1.98-4.27a.65.65 0 0 1 .66.33.15.15 0 0 0 .27-.11.84.84 0 0 0-1-.51.88.88 0 0 0-.56 1 .11.11 0 0 0 .21-.06.57.57 0 0 1 .42-.65z"></path><path d="M123.84 14.15a.24.24 0 0 0-.09.08 6.26 6.26 0 0 1-2.75 3.59c-.6.42-1.48.5-1.83 1.2a.82.82 0 0 0 .07.84c.14.2.44.34.59.55a1.78 1.78 0 0 1-1.19-.22c-.29-.17-.62-.35-.95-.15-1 .78-.3 2.78.79 3.19.16.07.32.08.49.14s.34.38.44.61a4.93 4.93 0 0 1 .23 4.51c-.06.14.12.31.23.18 1.11-1.39.4-3.38-.19-4.82-.13-.3-.22-.61-.53-.76a3.66 3.66 0 0 1-1-.47 1.82 1.82 0 0 1-.6-1.89c.27-.79.72-.32 1.21-.07a1.58 1.58 0 0 0 1.28 0 .15.15 0 0 0 .11-.18 1.55 1.55 0 0 0-.46-.64.64.64 0 0 1-.28-.42c.07-.67.91-.76 1.39-1.05a6.41 6.41 0 0 0 3.06-3.94c1.62-.39 3.81 1 4.16 3.62a14.14 14.14 0 0 1 .1 3.44 3.65 3.65 0 0 1-1.25 2.89c-.36.25-.78.44-.81.94a10.46 10.46 0 0 0 .22 1.92c.45.47 0-1.69.1-1.87s.28-.45.51-.61a2.74 2.74 0 0 0 .56-.47 4.57 4.57 0 0 0 1-2.91c.11-2.12.08-4.74-1.58-6.32a3.17 3.17 0 0 0-3.03-.91z"></path><path d="M130.49 15.49c-.55-.28-.45-.4-.39-.94-.06-1.47-1.7-1.9-2.92-1.87-.89-3.37-5.27-3.57-7.9-2.19a8.31 8.31 0 0 0-4.28 4.89c-.15.57-.23.68-.83.71-2.39.59-2.27 3.42-1.46 5.25a3 3 0 0 0-2.43 4.34 5.27 5.27 0 0 0-2.6 3.34c-.58 2.24.63 5.38 3.2 5.59.2 0 .2-.3 0-.31-2-.1-3-2.4-3-4.12a4.71 4.71 0 0 1 2.79-4.24.21.21 0 0 0 .07-.27 2.55 2.55 0 0 1 2.31-3.9.23.23 0 0 0 .19-.33c-.65-1.45-1.25-3.39.17-4.6a1.92 1.92 0 0 1 1-.43 1 1 0 0 0 .74-.34 3.13 3.13 0 0 0 .33-.83 7.78 7.78 0 0 1 7.42-5.13 4 4 0 0 1 3.84 2.89.26.26 0 0 0 .24.18c1.24-.09 2.9.24 2.65 1.83 0 .59.63.76 1 1.07a1.66 1.66 0 0 1 .84 1.55.14.14 0 0 0 .26.08c.27-.97-.5-1.71-1.24-2.22zm6.51 9.18a7.32 7.32 0 0 0-2-2.24 3.83 3.83 0 0 1-1.11-1c-.21-.41-.25-.89-.5-1.28-.09-.13-.3 0-.22.12a6.85 6.85 0 0 1 .44 1.22 1.86 1.86 0 0 0 .72.8 8.66 8.66 0 0 1 2.1 1.95 2.92 2.92 0 0 1-.92 4.52c-.15.07.08.21.23.17a2.35 2.35 0 0 0 1.59-1.63 3.39 3.39 0 0 0-.33-2.63zm-9.41 9.42a.33.33 0 0 0-.65 0 .33.33 0 0 0 .65 0zm-.04 1.63a.39.39 0 0 0 0 .78.39.39 0 0 0 0-.78zM139 18c.53.11.82-.65.88-.75 0 .12.1.93.84.47a2.36 2.36 0 0 0 .44-.81c0 .06.24 1.19.94.6a2.61 2.61 0 0 0 .52-1.35c.07-.39.22-1.09-.34-1.2-.35-.06-.65.24-.84.52a.43.43 0 0 0-.23-.31c-.41-.19-.74.26-.93.57-.24-.65-.95-.43-1.22.07a4 4 0 0 0-.45 1.63.5.5 0 0 0 .39.56zm2.53-2a1.27 1.27 0 0 1 .52-.74.26.26 0 0 1 .32 0 .83.83 0 0 1 .07.54 3 3 0 0 1-.36 1.16c-.06.13-.15.39-.32.36-.42-.05-.31-1.01-.19-1.32zm-1.33.79c.16-.49.27-1.16.76-1.43.67-.05.06 1.21 0 1.35s-.19.6-.42.8c-.43.22-.37-.57-.3-.76zm-1.34.49a3.52 3.52 0 0 1 .38-1.33c.16-.27.63-.62.78-.21s-.57 2.12-1 2c-.17-.08-.14-.36-.12-.5z"></path><path d="M144.86 25.23a16.86 16.86 0 0 0-.38-1.85c-.13-.53-.35-1.28-1-1.35a15 15 0 0 0-.62-1.86.09.09 0 0 0-.15.07c0 .14.47 1.46.53 1.75a10.41 10.41 0 0 0-2.61-.08c0-.23-.11-1.34-.14-1.46a.12.12 0 0 0-.23 0 11.14 11.14 0 0 0 .13 1.53c-.63.15-.7.91-.82 1.43-.53 2.18-1 4.36-1.6 6.54a14.32 14.32 0 0 0-8.08-2.31 3.32 3.32 0 0 0-3.66-2.26c-.16 0-.09.27.07.24a3.24 3.24 0 0 1 3.51 3 3.34 3.34 0 0 1-1.26 2.27 3.25 3.25 0 0 1-1.92 1.16s1.63-3.34.94-4.45a1.77 1.77 0 0 0-1.13-.6.16.16 0 0 0-.09.3 3.37 3.37 0 0 1 1 .47c.43.34-.51 3.08-.92 3.94-.11.24-.18.48-.49.44s-4.53-2-6.06-3.63c-.17-.18-.43.09-.26.28 1.29 1.43 5.56 3.57 6 3.67a6.85 6.85 0 0 1-2.63.7 8.07 8.07 0 0 1-3.17-.26 3.22 3.22 0 0 1 .34-6.21c.19-.05.2-.3 0-.28-2.48.26-3 3.2-3 3.21-9.57 5.75-10.36 9.61-14.26 19.41-.21.47-.47 1.05-.13 1.52a6.75 6.75 0 0 0-2.63 5.77c0 .29.08.69.45.67a.44.44 0 0 0 .58.47.85.85 0 0 0 .36.65c1.06.67 1.76-1.88 2-2.58.06-.1 0-.07.11-.07a2.53 2.53 0 0 1 1.37.76.14.14 0 0 0 .22 0c.92-1.2-.36-2.75.11-4.05.65.23 1.16-.35 1.58-.77a27.86 27.86 0 0 0 4.51-5.58 18.11 18.11 0 0 1 1.44-2.3c.83-1 2.1-1.41 3.09-2.19a11.18 11.18 0 0 0 2.54 6.31c.13.15.39-.05.27-.21a13.41 13.41 0 0 1-2.62-6.24 10.78 10.78 0 0 0 2.64-2.75s0-.07 0 0a16.84 16.84 0 0 1-1.7 1.55c-1.13 1-2.58 1.54-3.78 2.45a5.34 5.34 0 0 0-1.31 1.64 34.53 34.53 0 0 1-2.5 3.91 26.76 26.76 0 0 1-3.14 3.42c-.29.28-.56.59-1 .46a4.23 4.23 0 0 1-2.36-1.67 1 1 0 0 1 .09-.74c.62-1.63 1.29-3.23 2-4.84 2.83-7.62 5.33-10.32 12.09-14.72A3.67 3.67 0 0 0 119 33a6.92 6.92 0 0 0 3.43.5 5.88 5.88 0 0 0 3.33-1h.07a31.59 31.59 0 0 0 .51 5.1c.26.35.92.1 1.23 0 .1 0 .06-.2 0-.16-.32.12-.94.25-1-.25 0-.13-.4-4.2-.42-4.62a.5.5 0 0 0 .28-.13 3.36 3.36 0 0 0 2.44-1.32c.85-.84 1.6-2.06 1.12-3.28a17.08 17.08 0 0 1 8 2.46.15.15 0 0 0 .21-.09c.56-2.4 1.15-4.8 1.73-7.2.07-.26.12-.59.42-.69a9 9 0 0 1 2.69 0c.28 0 .65.06.82.31a7.08 7.08 0 0 1 .67 2.49 20 20 0 0 1 .32 6.93c-.56 3.5-3.78 5.1-7.06 5.22-1.31.08-2.61-.07-3.92-.11a24.17 24.17 0 0 0-1-5.46c0-.08-.15 0-.13 0a26.75 26.75 0 0 1 .93 6.6 21.76 21.76 0 0 1-.16 5.87 6.79 6.79 0 0 1-1.27 2.72c-.12.16.14.35.28.21 1.35-1.3 1.58-3.35 1.58-5.13 0-1.52 0-3.06-.17-4.59 9.48 1.31 13.07-2.89 10.93-12.15zm-41.81 25.7a5.83 5.83 0 0 0 1.95 1.15c-.68 1.16.85 2.73 0 3.84a2.55 2.55 0 0 0-1.09-.71c-.4-.14-.78-.18-.83.35a6.66 6.66 0 0 1-.57 1.68c-.13.26-.3.65-.62.7a.54.54 0 0 1-.56-.58 2.87 2.87 0 0 0 .73-1.55 8.84 8.84 0 0 0 .22-1.25h-.05a5.45 5.45 0 0 1-1 2.56c-.27.22-.53 0-.31-.28a4.63 4.63 0 0 0 .46-2.32h-.08a7.37 7.37 0 0 1-.47 1.89c0 .08-.19.5-.38.11a6.61 6.61 0 0 1 2.43-5.77z"></path><path d="M108.67 59.43a2.3 2.3 0 0 0-.51-.66c-.44-.5-2.43-2.38-3-2.85a.11.11 0 0 0-.16.16c.39.4 2.77 2.69 2.94 2.88s.55.49.39.84c-.25.51-4.2 7.28-4.32 7.26s-3.35-3.47-3.77-3.9a6 6 0 0 0-1.15-1c-.87-.54-1.95-.55-2.81-1.12a5.39 5.39 0 0 1-1.76-2.19 1.58 1.58 0 0 1-.22-.94c0-.33 2.87-5.61 3.15-6.15.71 1 1.94 2.44 3.25 1.82.2-.09 0-.39-.17-.29-1.19.49-2.39-1-3-1.92a.16.16 0 0 0-.27 0c-.33.59-2.55 4.75-2.86 5.34a2.74 2.74 0 0 0-.49 1.5 6.24 6.24 0 0 0 1.45 2.67 4.86 4.86 0 0 0 2.79 1.34 7.63 7.63 0 0 1 2.88 2.33c.45.48 2.49 2.63 2.73 2.81.43.33.76-.34 1-.63.36-.49 3.45-6.08 3.75-6.71a.76.76 0 0 0 .16-.59z"></path><path d="M102.74 60.33a.23.23 0 0 0 .08.31c.37.28 1.67 1.66 2 2a.17.17 0 0 0 .25 0c.29-.38 1.45-2 1.75-2.34a.12.12 0 0 0 0-.15 19.11 19.11 0 0 0-1.69-2.15.31.31 0 0 0-.46.08S103 60 102.74 60.33zm2.27.58a.5.5 0 1 0-.12-1 1.33 1.33 0 0 0-.36-1.31c.08-.12.3-.36.33-.4s1.44 1.65 1.73 2c-.25.39-1.37 1.77-1.65 2.09-.28-.32-1.42-1.56-1.72-1.85l.33-.42a1.3 1.3 0 0 0 1 .23.5.5 0 0 0 .45.66zM99 54.88c0-.14-.15-.21-.22-.1-.22.33-1.77 3.53-2.17 4.22-.06.09.09.17.14.08.39-.7 2.13-3.84 2.25-4.2zm-.58 5.34c.51-.75 1.06-1.48 1.61-2.22.12-.16-.17-.34-.28-.16-.48.78-1 1.55-1.46 2.31-.06.08.07.16.13.07zm1.72 1.42c.57-.62 3.07-3.43 3.23-3.82.07-.18-.18-.27-.3-.17-.3.25-2.49 3.26-3 3.88-.07.07 0 .18.07.11zm2.31-.21a.16.16 0 0 0-.21-.22c-.06 0-.74.93-.87 1.12s.08.18.14.1a11.8 11.8 0 0 0 .94-1zm-.62 2.28c.2-.22 1.2-1.13 1.27-1.27a.15.15 0 0 0-.21-.2 16.17 16.17 0 0 0-1.12 1.41s.02.11.06.06zm1.17.69c.2-.24 1.15-1.29 1.23-1.43a.12.12 0 0 0-.19-.15c-.12.1-.94 1.25-1.13 1.49-.03.07.09.16.09.09zm-43.69 61.04c1.93-.54 3.85-1.12 5.79-1.64a6.29 6.29 0 0 1 2.82.25c1 .19 1.93.48 2.9.61.17 0 .18-.23 0-.28-1.42-.45-2.91-.74-4.37-1.07-1.47-.15-2.86.57-4.25.92l-3 .91a.16.16 0 0 0 .11.3zM86 128.9c-.82-.37-8.87-2.84-10.66-3.33-.19-.06-.27.24-.08.3 1.76.53 9.12 2.92 9.76 3.15-1.21.3-18.7 5.44-19.74 5.83l-20.15-5.68c1.34-.42 6.92-2 8.35-2.48a.12.12 0 0 0-.06-.24l-8.76 2.47v28.27c9.18-1.93 17.62 3.37 21.12 9.42l-.28-31.45c2.25-.8 18.52-5.58 20.08-5.85 0 3 .39 44.68.51 46.37a.17.17 0 0 0 .33 0c.13-1.52-.28-46.74-.42-46.78zm32.67-32.05c1.62-.37 3.25-.73 4.86-1.12a1.46 1.46 0 0 1 .58-.08c1.46.32 2.91.69 4.37 1a.21.21 0 0 0 .11-.4c-1.27-.31-2.56-.58-3.85-.86a1.89 1.89 0 0 0-1.15-.07c-1.67.41-3.33.85-5 1.27a.14.14 0 0 0 .08.26zm25.19 4.41c0-.13-8.5-3-12.61-4.41-.24-.08-.34.31-.1.39 3.89 1.38 7.77 2.83 11.7 4.1-1.29.27-19.15 5.15-20.13 5.5l-19.58-6c1.93-.51 11.32-2.94 11.79-3.13a.21.21 0 0 0-.11-.41c-.5.08-12.18 3.38-12.18 3.38q.19 39.72.37 79.43a20.56 20.56 0 0 1 20.78 7.83l-.63-80.8c.69-.24 18.59-5.23 20.19-5.51-.07 3.78.65 54.36.82 58.67 0 .29.46.29.45 0-.26-7.67-.85-54.72-.76-59.04z"></path><path d="M194.23 145.4c-3.89 1.25-5.47 5.6-5.64 9.35a12.07 12.07 0 0 0-11.51 4.75 1.35 1.35 0 0 1-2 .21c-18.88-12.72-54 7.13-49.68 30.54a.09.09 0 0 0 .18 0 26.83 26.83 0 0 1 .68-9.1c4.23-17.72 30.77-31 47.05-21.86 1.14.61 2.54 2 3.82 1a13.28 13.28 0 0 0 1.24-1.46 12 12 0 0 1 10.24-3.83.16.16 0 0 0 .15 0 10.54 10.54 0 0 1 4.55 1.73c.12.08.23-.11.11-.2a11.34 11.34 0 0 0-4.56-1.8c.27-3.68 1.82-7.71 5.42-9.27.07.03.02-.08-.05-.06zM48.28 156a30.37 30.37 0 0 0-9.3 2.74 3.69 3.69 0 0 0-2.19-.92c-.71 0-.77-.32-.88-.93-1.49-7.8-8.31-14-16.47-12.92-.19-.08-.27-.33-.36-.49a18.89 18.89 0 0 0-12.4-9.32.1.1 0 0 0-.06.2 19.28 19.28 0 0 1 11.92 9.23 1.83 1.83 0 0 0 .61.84 1.65 1.65 0 0 0 1 .07c7.53-1 14 5.33 15.23 12.45.08.69.35 1.4 1.18 1.35a2.92 2.92 0 0 1 2.07.62c-5.06 2.45-9.46 6.7-11.24 12.13a14.08 14.08 0 0 0-11.58 2.14c-1.31.95-.79.9-1.84-.26a23.69 23.69 0 0 0-8.82-6.23c-.08 0-.16.08-.07.12a25.39 25.39 0 0 1 9.1 7.15c.22.27.49.5.85.39a15.39 15.39 0 0 1 12.28-3.09 17.65 17.65 0 0 0-.81 4.14c0 .11.17.11.18 0 1.07-11 11.67-17.36 21.7-19 .19-.01.15-.41-.1-.41zm57.6 23a15.21 15.21 0 0 0-8.94 4.15c-2-3-4.38-6-8-7.19a11 11 0 0 0-10.72 2.21c-2-2.29-5.31-2.69-8.08-1.73a42.88 42.88 0 0 0-5.36-12.48c-.15-.23-.52 0-.38.22a49.61 49.61 0 0 1 5.35 12.62.23.23 0 0 0 .33.14 7.18 7.18 0 0 1 8 1.4 11.2 11.2 0 0 0-2.64 3.75c0 .1.1.19.15.09a10.73 10.73 0 0 1 17.23-3.28 31.1 31.1 0 0 1 3.86 4.77.27.27 0 0 0 .4 0 15.11 15.11 0 0 1 8.87-4.24c.27-.01.21-.43-.07-.43zm-19.67-33.33c3.66-5.43 12.93-6.79 17.36-1.62.12.12.32 0 .24-.19a6.9 6.9 0 0 0-3.07-2.53c-5-2.28-11.83-.62-14.79 4.18-.11.17.15.32.26.16zM195 128.42c-3.5.26-6.21 3-7.94 5.85-1.71-1.26-3.42-1-5.29-.33-.35 0-.57-.44-.76-.68a15.64 15.64 0 0 0-7.49-5.71c-5.38-2-10.83.5-14.37 4.68-1.88 2.21-3.63 4.85-3.79 7.83-2.36-2.52-6.25-3.93-9.51-2.36a4.27 4.27 0 0 0-1.88 1.41c-.09.12 0 .41.11.3a5.48 5.48 0 0 1 4.12-1.91 9.18 9.18 0 0 1 7.24 3.3.24.24 0 0 0 .4-.17c0-2.81 1.47-5.34 3.19-7.47 6.19-8.19 16.26-7.23 22 .85.51.65 1.24.19 1.88 0a4.33 4.33 0 0 1 3.93.56 24.52 24.52 0 0 0-1.85 4.15c0 .09.12.13.15 0a22.52 22.52 0 0 1 2-4.12.26.26 0 0 0 .07-.11 14.16 14.16 0 0 1 7.73-6c.06.01.06-.08.06-.07z"></path></g></g></svg>
