<svg xmlns="http://www.w3.org/2000/svg" fill="none" viewBox="0 0 14 14" height="48" width="48">
  <path fill="currentColor" fill-rule="evenodd" d="M0 11C0 12.6569 1.34315 14 3 14C4.65685 14 6 12.6569 6 11L6 3C6 1.34315 4.65685 0 3 0C1.34315 0 0 1.34315 0 3V11ZM8 11C8 12.6569 9.34315 14 11 14C12.6569 14 14 12.6569 14 11V3C14 1.34315 12.6569 0 11 0C9.34315 0 8 1.34315 8 3V11ZM4.49951 3.5C4.49951 4.32843 3.82794 5 2.99951 5C2.17108 5 1.49951 4.32843 1.49951 3.5C1.49951 2.67157 2.17108 2 2.99951 2C3.82794 2 4.49951 2.67157 4.49951 3.5ZM10.9995 12C11.8279 12 12.4995 11.3284 12.4995 10.5C12.4995 9.67157 11.8279 9 10.9995 9C10.1711 9 9.49951 9.67157 9.49951 10.5C9.49951 11.3284 10.1711 12 10.9995 12Z" clip-rule="evenodd"></path>
</svg>
