<svg class="bklogo" viewBox="0 0 500 200" id="cm_logo" xmlns="http://www.w3.org/2000/svg"><path class="bkst0" d="M489.5 98.4c0-51.5-41.7-93.2-93.2-93.2-28.1 0-53.3 12.5-70.4 32.2C308.8 17.6 283.4 5.1 255 5.1c-2.6 0-5.1.1-7.7.3v-.2c-28 .9-54 15.1-70.6 39.9l-4.2 6.3-28.8 43.1-15.3 23.2c-12.6 18.8-32.2 21-46.5 16.7-14.2-4.3-29.4-17-29.4-39.6 0-22.7 15.2-35.3 29.4-39.6 3.9-1.2 8.2-1.9 12.7-1.9 10.8 0 22.6 4.1 31.5 15.4l28.4-39.9C131.7 7.4 99.6-.4 68 9.2 29.5 20.9 4.5 54.5 4.5 94.8s24.9 73.9 63.5 85.6c33.5 10.2 67.5.9 90.6-23.7v27.8h48V102c0-25.7 20.9-46.6 46.6-46.6 25.7 0 46.6 20.9 46.6 46.6v82.5h48V102c0-1.4.1-2.8.2-4.2l.2-.3v-1c2.7-23.2 22.4-41.1 46.3-41.1 24.4 0 44.4 18.8 46.4 42.7v86.4h48v-75.7c.4-3.5.6-6.9.6-10.4z"></path></svg>
