<svg xmlns="http://www.w3.org/2000/svg" width="332.282" height="39.843" xml:space="preserve">
  <style>
    .st0{fill:#000}.st1{fill:#000}
  </style>
  <path class="st0" d="M25.492 10.271H7.098v7.381h16.885v6.037H7.098v8.938h19.243v6.249H0V4.116h25.492v6.155zM31.339 4.116h7.263v28.511h17.356v6.249h-24.62V4.116zM85.521 10.271H67.126v7.381h16.885v6.037H67.126v8.938h19.243v6.249H60.028V4.116H85.52v6.155zM94.127 7.748c2.8-2.861 6.361-4.292 10.685-4.292 5.786 0 10.016 1.918 12.691 5.754 1.478 2.154 2.271 4.315 2.38 6.485h-7.263c-.462-1.666-1.055-2.924-1.779-3.773-1.293-1.509-3.211-2.264-5.752-2.264-2.588 0-4.629 1.065-6.123 3.195s-2.241 5.145-2.241 9.043.789 6.819 2.365 8.761c1.576 1.942 3.579 2.912 6.009 2.912 2.491 0 4.391-.833 5.698-2.5.722-.896 1.322-2.24 1.799-4.032h7.216c-.623 3.789-2.213 6.87-4.771 9.244-2.559 2.374-5.836 3.561-9.833 3.561-4.946 0-8.834-1.604-11.665-4.811-2.831-3.223-4.246-7.641-4.246-13.253.001-6.067 1.611-10.744 4.83-14.03zM150.342 4.116v6.155h-10.4v28.605h-7.31V10.271h-10.447V4.116h28.157zM176.22 5.012a8.59 8.59 0 0 1 3.254 2.429c.736.88 1.318 1.855 1.748 2.924.429 1.069.644 2.288.644 3.655 0 1.651-.417 3.274-1.25 4.87s-2.209 2.724-4.127 3.384c1.604.645 2.739 1.561 3.408 2.747.668 1.188 1.002 2.999 1.002 5.436v2.335c0 1.588.064 2.665.192 3.23.191.896.638 1.557 1.341 1.981v.873h-8.018c-.22-.77-.377-1.391-.472-1.863a17.21 17.21 0 0 1-.307-2.995l-.047-3.23c-.03-2.217-.413-3.694-1.149-4.434-.736-.739-2.116-1.108-4.138-1.108h-7.094v13.63h-7.098V4.116h16.626c2.376.048 4.204.346 5.485.896zm-15.012 5.141v9.338h7.817c1.553 0 2.717-.189 3.494-.566 1.374-.661 2.061-1.965 2.061-3.915 0-2.107-.665-3.521-1.994-4.245-.746-.408-1.866-.613-3.359-.613h-8.019z"/>
  <path class="st1" d="M199.414 0h6.667v18.333h-6.667z"/>
  <path class="st1" d="M214.149 7.111c-1.462-1.506-3.301-2.576-5.489-3.244v7.529c.332.308.653.636.949 1.009 1.69 2.13 2.535 5.145 2.535 9.043 0 3.915-.845 6.933-2.535 9.056-1.689 2.123-3.973 3.184-6.85 3.184s-5.173-1.061-6.886-3.184c-1.714-2.123-2.571-5.141-2.571-9.056 0-3.915.857-6.933 2.571-9.055.3-.372.625-.7.961-1.006V3.874c-2.178.668-4.009 1.736-5.466 3.237-3.522 3.191-5.282 7.971-5.282 14.337 0 6.242 1.76 11.021 5.282 14.338 2.625 2.704 6.422 4.056 11.391 4.056 4.967 0 8.764-1.352 11.39-4.056 3.506-3.317 5.259-8.096 5.259-14.338 0-6.366-1.753-11.145-5.259-14.337zM223.671 4.116h7.614l13.799 24.237V4.116h6.768v34.76h-7.262l-14.15-24.664v24.664h-6.769V4.116z"/>
  <path class="st0" d="M265.285 38.876h-7.217V4.116h7.217v34.76zM275.125 7.748c2.8-2.861 6.361-4.292 10.686-4.292 5.785 0 10.016 1.918 12.691 5.754 1.478 2.154 2.271 4.315 2.379 6.485h-7.263c-.462-1.666-1.056-2.924-1.779-3.773-1.294-1.509-3.211-2.264-5.752-2.264-2.588 0-4.629 1.065-6.122 3.195-1.494 2.13-2.241 5.145-2.241 9.043s.788 6.819 2.364 8.761c1.577 1.942 3.58 2.912 6.01 2.912 2.491 0 4.391-.833 5.697-2.5.723-.896 1.322-2.24 1.8-4.032h7.216c-.622 3.789-2.213 6.87-4.771 9.244-2.559 2.374-5.837 3.561-9.834 3.561-4.945 0-8.834-1.604-11.665-4.811-2.83-3.223-4.245-7.641-4.245-13.253 0-6.067 1.61-10.744 4.829-14.03zM309.879 38.876h-8.442l11.178-17.71-10.636-17.05h8.679l6.199 11.32 6.37-11.32h8.395l-10.635 16.767 11.295 17.993h-8.819l-6.604-11.852-6.98 11.852z"/>
</svg>
