<svg id="gscn_svg__Ebene_1" data-name="Ebene 1"
  xmlns="http://www.w3.org/2000/svg" viewBox="0 0 861 198">
  <defs>
    <style>.gscn_svg__cls-2{fill:#000}</style>
  </defs>
  <g id="gscn_svg__logo">
    <g id="gscn_svg__Artboard">
      <g id="gscn_svg__Group-2">
        <g id="gscn_svg__Group">
          <circle id="gscn_svg__Oval" cx="99" cy="99" r="91.5" style="fill:none;stroke:#000;stroke-width:15"></circle>
          <path id="gscn_svg__Combined-Shape" class="gscn_svg__cls-2" d="m138.67 56.85 2.9 2.9a84.85 84.85 0 0 1 15.2 19.87 52.82 52.82 0 0 1 5.53 20.9q1.53 26-17.37 44.92-18.45 18.45-44.93 18.28a63.29 63.29 0 0 1-29.33-7.09l13.13-14.55a44.21 44.21 0 0 0 19 3q18.67-1 30.17-12.53a37.42 37.42 0 0 0 11-24.19q1.14-14.46-7.23-24.66l-21.92 21.92-12.48-12.44ZM78.32 38q12.75-4.34 30.46-3.13l-.4 18.5q-25.23-3.59-40.77 12-13.95 13.95-13.78 33A44.45 44.45 0 0 0 64 126.92L49.53 139a61.75 61.75 0 0 1-13.86-40q0-26.76 19.19-46a63 63 0 0 1 23.46-15Z"></path>
        </g>
        <path id="gscn_svg__GAMESERVERCHECK" class="gscn_svg__cls-2" d="M253.64 93a21.8 21.8 0 0 0 7.5-1.28 20.77 20.77 0 0 0 6.41-3.78V64.55h-15.73V73h6.91v9.74a4.75 4.75 0 0 1-1.88.87 11.13 11.13 0 0 1-2.74.29 8.8 8.8 0 0 1-8-4.44q-2.73-4.44-2.73-12.95 0-8.79 2.83-13.11t8.58-4.33a13.24 13.24 0 0 1 6 1.39 14.12 14.12 0 0 1 4.87 4.12V43.43a21.87 21.87 0 0 0-5.57-2.51 21.43 21.43 0 0 0-6.05-.87q-10.28 0-15.74 6.8t-5.45 19.69q0 12.67 5.4 19.56t15.39 6.9Zm28.64-1 3.07-12.61h13.5L302 92h10.08l-13.77-51H286l-13.81 51Zm14.63-20.92h-9.54l4.75-20.88ZM324.83 92V51.12l5.47 22.32h8l5.4-22.32V92h8.68V41h-12.1l-6 22.39-6.1-22.39h-12v51Zm68.05 0v-8.89h-21.7V69.75h19.65v-8.89h-19.65v-11h21.7V41H361.1v51Zm24.2 1q9.23 0 13.79-3.81t4.57-11.54a14.78 14.78 0 0 0-2.91-9.39c-1.94-2.49-4.95-4.48-9.06-6l-4.34-1.64q-4.5-1.66-5.93-3.06a4.7 4.7 0 0 1-1.42-3.5 5 5 0 0 1 2-4.2 9.19 9.19 0 0 1 5.61-1.47 19.77 19.77 0 0 1 6.61 1.19 27.7 27.7 0 0 1 6.6 3.49v-9.84a36.66 36.66 0 0 0-7-2.38 31.22 31.22 0 0 0-7-.8q-7.76 0-12.2 4t-4.44 10.91q0 5.4 2.7 8.59t10.32 6.1l5 1.88a9 9 0 0 1 4 2.72 6.29 6.29 0 0 1 1.37 4 5.82 5.82 0 0 1-2.18 4.75 8.85 8.85 0 0 1-5.78 1.69 21.48 21.48 0 0 1-7.47-1.4 34 34 0 0 1-7.81-4.29v10.4a34.13 34.13 0 0 0 7.37 2.69 32.94 32.94 0 0 0 7.6.91Zm60.09-1v-8.89h-21.7V69.75h19.65v-8.89h-19.65v-11h21.7V41h-31.79v51Zm19.24 0V71.83h3.22q3.64 0 6.35 5.78.45 1 .72 1.5L512.85 92h11.08l-9.23-18.35a17.87 17.87 0 0 0-2.7-4.33 5.1 5.1 0 0 0-2.61-1.42 10.93 10.93 0 0 0 7.38-3.72 12.79 12.79 0 0 0 2.56-8.38q0-7.86-4.29-11.34T500.89 41h-14.56v51Zm4.75-28.64h-4.75V49.45h4.75c2.78 0 4.77.53 5.95 1.6s1.78 2.85 1.78 5.33-.6 4.27-1.8 5.35-3.17 1.63-5.93 1.63ZM552 92l12.13-51H554l-9 42.62L536 41h-10.12L538 92Zm51.61 0v-8.89H581.9V69.75h19.65v-8.89H581.9v-11h21.7V41h-31.79v51Zm19.24 0V71.83h3.22q3.66 0 6.35 5.78.45 1 .72 1.5L639.28 92h11.08l-9.23-18.35a17.87 17.87 0 0 0-2.72-4.33 5.1 5.1 0 0 0-2.61-1.42 10.93 10.93 0 0 0 7.38-3.72 12.79 12.79 0 0 0 2.56-8.38q0-7.86-4.28-11.34T627.32 41h-14.56v51Zm4.76-28.64h-4.76V49.45h4.76q4.17 0 5.94 1.6t1.78 5.33q0 3.73-1.79 5.35t-5.93 1.63ZM676.75 93a24.22 24.22 0 0 0 5.53-.61 21.84 21.84 0 0 0 5-1.85V79.32a19.77 19.77 0 0 1-5 3.5 12.08 12.08 0 0 1-5 1.11 9.28 9.28 0 0 1-8.35-4.39q-2.82-4.4-2.82-13t2.82-13a9.28 9.28 0 0 1 8.35-4.4 11.94 11.94 0 0 1 5 1.12 19.52 19.52 0 0 1 5 3.5V42.51a20.57 20.57 0 0 0-5-1.85 24.76 24.76 0 0 0-5.57-.61q-10.34 0-15.76 6.8t-5.44 19.69q0 12.84 5.44 19.65t15.8 6.81Zm30.52-1V69.3h12.61V92H730V41h-10.12v19.42h-12.61V41h-10.08v51Zm64.91 0v-8.89h-21.71V69.75h19.65v-8.89h-19.65v-11h21.71V41h-31.79v51Zm31 1a24.22 24.22 0 0 0 5.53-.61 21.84 21.84 0 0 0 5-1.85V79.32a19.6 19.6 0 0 1-5 3.5 12.08 12.08 0 0 1-5.05 1.11 9.28 9.28 0 0 1-8.35-4.39q-2.82-4.4-2.82-13t2.82-13a9.28 9.28 0 0 1 8.35-4.4 11.94 11.94 0 0 1 5.05 1.12 19.36 19.36 0 0 1 5 3.5V42.51a20.57 20.57 0 0 0-5-1.85 24.76 24.76 0 0 0-5.57-.61q-10.33 0-15.76 6.8T782 66.54q0 12.84 5.44 19.65T803.18 93ZM833 92V74.71l4.49-5.71 12.1 23h11.21l-16.68-30.93L860.22 41h-11.41L833 61.14V41h-10.07v51Z"></path>
        <path id="gscn_svg__NETWORK" class="gscn_svg__cls-2" d="M242.65 148v-30L255 148h6.25v-36.45h-4.76v30l-12.31-30h-6.25V148Zm48.86 0v-4.15h-17.17v-13.21h16v-4.15h-16V115.7H291v-4.15h-21.59V148Zm20.75 0v-32.3h11.4v-4.15h-27.81v4.15h11.45V148Zm22.66 0 4.93-21.66L344.8 148h4.67l5.44-36.45h-4.81l-3.49 29.64-4.2-19.63h-5.15l-4.15 19.58-3.49-29.59h-4.81l5.44 36.45Zm35 .71q6.18 0 9.19-4.69t3-14.21q0-9.54-3-14.23t-9.11-4.69q-6.15 0-9.17 4.69t-3 14.23q0 9.57 3 14.23t9.17 4.67Zm0-4a5.55 5.55 0 0 1-5.38-3.44q-1.65-3.44-1.65-11.45t1.65-11.47a5.94 5.94 0 0 1 10.79 0q1.65 3.43 1.64 11.47t-1.64 11.46a5.59 5.59 0 0 1-5.33 3.42Zm23.51 3.3v-15.42h4.71a6.31 6.31 0 0 1 3.92 1.14q1.5 1.14 3.38 5.07l4.35 9.2h5.3l-5-10a22.63 22.63 0 0 0-3.35-5.41 6.82 6.82 0 0 0-3.24-1.84 8.15 8.15 0 0 0 7.49-8.69c0-3.42-1.06-6-3.2-7.84s-5.2-2.71-9.2-2.71H388.5V148Zm5.4-19.46h-5.4V115.6h5.2a7.75 7.75 0 0 1 5.36 1.67 6.2 6.2 0 0 1 1.84 4.83 6.3 6.3 0 0 1-1.73 4.86 7.63 7.63 0 0 1-5.27 1.58ZM423.42 148v-14.26l3.76-4L439.07 148H445l-14.6-21.56 14.19-14.89h-5.79l-15.4 16.21v-16.21h-5V148Z"></path>
      </g>
    </g>
  </g>
</svg>
