<?xml version="1.0" encoding="UTF-8"?>
<svg width="242px" height="48px" viewBox="0 0 242 48" version="1.1" xmlns="http://www.w3.org/2000/svg" xmlns:xlink="http://www.w3.org/1999/xlink">
    <title>happysuits</title>
    <g id="Logo" stroke="none" stroke-width="1" fill="none" fill-rule="evenodd">
        <g id="Artboard" transform="translate(-84.000000, -174.000000)" fill="#000000" fill-rule="nonzero">
            <path d="M90.8444444,212 L90.8444444,203.427123 C90.8444444,201.147444 91.317037,199.285171 92.2622222,197.840304 C93.2074074,196.395437 94.4622222,195.673004 96.0266667,195.673004 C98.0148148,195.673004 99.0577778,196.700465 99.1555556,198.755387 L99.1555556,198.755387 L99.1555556,212 L106,212 L106,196.250951 C105.967407,194.420786 105.274815,192.911703 103.922222,191.723701 C102.56963,190.535699 100.882963,189.941698 98.8622222,189.941698 C96.9718519,189.941698 95.3340741,190.326996 93.9488889,191.097592 C92.5637037,191.868188 91.48,192.927757 90.6977778,194.276299 L90.6977778,194.276299 L90.6977778,174 L84,174 L84,212 L90.8444444,212 Z M121.380952,213 C124.015873,213 126.333333,211.92569 128.333333,209.77707 L128.333333,209.77707 L128.333333,212.414013 L135,212.414013 L135,191.07431 L128.809524,191.07431 L128.380952,193.271762 C127.555556,192.230007 126.603175,191.424275 125.52381,190.854565 C124.444444,190.284855 122.984127,190 121.142857,190 C119.365079,190 117.698413,190.488323 116.142857,191.464968 C114.587302,192.441614 113.34127,193.817056 112.404762,195.591295 C111.468254,197.365534 111,199.424628 111,201.768577 C111,205.47983 111.960317,208.279547 113.880952,210.167728 C115.801587,212.055909 118.301587,213 121.380952,213 Z M122.747748,207 C121.723724,207 120.774024,206.736626 119.898649,206.209877 C119.023273,205.683128 118.321321,204.950617 117.792793,204.012346 C117.264264,203.074074 117,202.045267 117,200.925926 C117,199.213992 117.536787,197.798354 118.61036,196.679012 C119.683934,195.559671 120.98048,195 122.5,195 C123.821321,195 124.969219,195.312757 125.943694,195.938272 C126.918168,196.563786 127.603604,197.403292 128,198.45679 L128,198.45679 L128,203.740741 C126.90991,205.91358 125.159159,207 122.747748,207 Z M148.7607,222 L148.7607,210.041854 C149.538911,210.839063 150.51978,211.452915 151.703307,211.883408 C152.886835,212.313901 154.094682,212.529148 155.326848,212.529148 C157.596628,212.529148 159.61511,212.090683 161.382296,211.213752 C163.149481,210.336821 164.527562,209.061286 165.516537,207.387145 C166.505512,205.713004 167,203.727952 167,201.431988 C167,199.104136 166.55415,197.079223 165.662451,195.35725 C164.770752,193.635277 163.546693,192.311908 161.990272,191.387145 C160.433852,190.462382 158.666667,190 156.688716,190 C153.770428,190 151.014267,191.020429 148.420233,193.061286 L148.420233,193.061286 L147.836576,190.573991 L142,190.573991 L142,222 L148.7607,222 Z M154.025862,208 C152.824713,208 151.773707,207.687243 150.872845,207.061728 C149.971983,206.436214 149.347701,205.596708 149,204.54321 L149,204.54321 L149,199.259259 C149.568966,198.17284 150.303879,197.358025 151.204741,196.814815 C152.105603,196.271605 153.204023,196 154.5,196 C156.048851,196 157.35273,196.567901 158.411638,197.703704 C159.470546,198.839506 160,200.296296 160,202.074074 C160,203.786008 159.41523,205.201646 158.24569,206.320988 C157.076149,207.440329 155.66954,208 154.025862,208 Z M178.7607,222 L178.7607,210.041854 C179.538911,210.839063 180.51978,211.452915 181.703307,211.883408 C182.886835,212.313901 184.094682,212.529148 185.326848,212.529148 C187.596628,212.529148 189.61511,212.090683 191.382296,211.213752 C193.149481,210.336821 194.527562,209.061286 195.516537,207.387145 C196.505512,205.713004 197,203.727952 197,201.431988 C197,199.104136 196.55415,197.079223 195.662451,195.35725 C194.770752,193.635277 193.546693,192.311908 191.990272,191.387145 C190.433852,190.462382 188.666667,190 186.688716,190 C183.770428,190 181.014267,191.020429 178.420233,193.061286 L178.420233,193.061286 L177.836576,190.573991 L172,190.573991 L172,222 L178.7607,222 Z M184.025862,208 C182.824713,208 181.773707,207.687243 180.872845,207.061728 C179.971983,206.436214 179.347701,205.596708 179,204.54321 L179,204.54321 L179,199.259259 C179.568966,198.17284 180.303879,197.358025 181.204741,196.814815 C182.105603,196.271605 183.204023,196 184.5,196 C186.048851,196 187.35273,196.567901 188.411638,197.703704 C189.470546,198.839506 190,200.296296 190,202.074074 C190,203.786008 189.41523,205.201646 188.24569,206.320988 C187.076149,207.440329 185.66954,208 184.025862,208 Z M210.284047,222 L224,191 L217.871595,191 L212.229572,203.361669 L206.636187,191 L199,191 L208.824903,210.836167 L203.717899,222 L210.284047,222 Z M234.779292,212 C236.773842,212 238.46594,211.66166 239.855586,210.984979 C241.245232,210.308298 242.283379,209.41917 242.970027,208.317597 C243.656676,207.216023 244,206.004292 244,204.682403 C244,201.849785 242.316076,199.898426 238.948229,198.828326 C238.719346,198.765379 238.498638,198.702432 238.286104,198.639485 C238.073569,198.576538 237.86921,198.513591 237.673025,198.450644 C236.39782,198.104435 235.457766,197.766094 234.852861,197.435622 C234.247956,197.10515 233.961853,196.609442 233.99455,195.948498 C233.99455,195.507868 234.239782,195.130186 234.730245,194.815451 C235.220708,194.500715 235.858311,194.343348 236.643052,194.343348 C237.297003,194.343348 238.024523,194.508584 238.825613,194.839056 C239.626703,195.169528 240.354223,195.586552 241.008174,196.090129 L241.008174,196.090129 L243.607629,192.218884 C242.463215,191.432046 241.269755,190.865522 240.027248,190.519313 C238.784741,190.173104 237.280654,190 235.514986,190 C233.618529,190 232.032698,190.33834 230.757493,191.015021 C229.482289,191.691702 228.542234,192.557225 227.93733,193.611588 C227.332425,194.665951 227.029973,195.74392 227.029973,196.845494 C227.029973,198.293276 227.487738,199.575823 228.40327,200.693133 C229.318801,201.810443 230.708447,202.652361 232.572207,203.218884 C232.833787,203.281831 233.348774,203.423462 234.117166,203.643777 C234.885559,203.864092 235.580381,204.139485 236.201635,204.469957 C236.822888,204.800429 237.133515,205.280401 237.133515,205.909871 C237.133515,206.444921 236.86376,206.846209 236.324251,207.113734 C235.784741,207.381259 235.073569,207.515021 234.190736,207.515021 C232.523161,207.515021 230.741144,206.665236 228.844687,204.965665 L228.844687,204.965665 L226,208.600858 C227.013624,209.670959 228.288828,210.505007 229.825613,211.103004 C231.362398,211.701001 233.013624,212 234.779292,212 Z M255.729545,213 C257.511364,213 259.0625,212.607715 260.382955,211.823144 C261.703409,211.038574 262.729545,209.973799 263.461364,208.628821 L263.461364,208.628821 L263.938636,211.991266 L270,211.991266 L270,191 L263.318182,191 L263.318182,199.550218 C263.318182,201.823872 262.880682,203.681223 262.005682,205.122271 C261.130682,206.563319 259.961364,207.283843 258.497727,207.283843 C256.715909,207.283843 255.777273,206.259098 255.681818,204.209607 L255.681818,204.209607 L255.681818,191 L249,191 L249,206.707424 C249.031818,208.532751 249.684091,210.037846 250.956818,211.222707 C252.229545,212.407569 253.820455,213 255.729545,213 Z M280.546053,187 C281.436404,187 282.234649,186.669031 282.940789,186.007092 C283.64693,185.345154 284,184.51773 284,183.524823 C284,182.531915 283.64693,181.696217 282.940789,181.01773 C282.234649,180.339243 281.436404,180 280.546053,180 C279.625,180 278.803728,180.339243 278.082237,181.01773 C277.360746,181.696217 277,182.531915 277,183.524823 C277,184.51773 277.360746,185.345154 278.082237,186.007092 C278.803728,186.669031 279.625,187 280.546053,187 Z M284,212 L284,191 L277,191 L277,212 L284,212 Z M299.936306,212 L299.936306,196.260731 L305,196.260731 L305,191.062003 L299.936306,191.062003 L299.936306,182 L293.248408,182 L293.248408,191.062003 L290,191.062003 L290,196.260731 L293.248408,196.260731 L293.248408,212 L299.936306,212 Z M316.779292,212 C318.773842,212 320.46594,211.66166 321.855586,210.984979 C323.245232,210.308298 324.283379,209.41917 324.970027,208.317597 C325.656676,207.216023 326,206.004292 326,204.682403 C326,201.849785 324.316076,199.898426 320.948229,198.828326 C320.719346,198.765379 320.498638,198.702432 320.286104,198.639485 C320.073569,198.576538 319.86921,198.513591 319.673025,198.450644 C318.39782,198.104435 317.457766,197.766094 316.852861,197.435622 C316.247956,197.10515 315.961853,196.609442 315.99455,195.948498 C315.99455,195.507868 316.239782,195.130186 316.730245,194.815451 C317.220708,194.500715 317.858311,194.343348 318.643052,194.343348 C319.297003,194.343348 320.024523,194.508584 320.825613,194.839056 C321.626703,195.169528 322.354223,195.586552 323.008174,196.090129 L323.008174,196.090129 L325.607629,192.218884 C324.463215,191.432046 323.269755,190.865522 322.027248,190.519313 C320.784741,190.173104 319.280654,190 317.514986,190 C315.618529,190 314.032698,190.33834 312.757493,191.015021 C311.482289,191.691702 310.542234,192.557225 309.93733,193.611588 C309.332425,194.665951 309.029973,195.74392 309.029973,196.845494 C309.029973,198.293276 309.487738,199.575823 310.40327,200.693133 C311.318801,201.810443 312.708447,202.652361 314.572207,203.218884 C314.833787,203.281831 315.348774,203.423462 316.117166,203.643777 C316.885559,203.864092 317.580381,204.139485 318.201635,204.469957 C318.822888,204.800429 319.133515,205.280401 319.133515,205.909871 C319.133515,206.444921 318.86376,206.846209 318.324251,207.113734 C317.784741,207.381259 317.073569,207.515021 316.190736,207.515021 C314.523161,207.515021 312.741144,206.665236 310.844687,204.965665 L310.844687,204.965665 L308,208.600858 C309.013624,209.670959 310.288828,210.505007 311.825613,211.103004 C313.362398,211.701001 315.013624,212 316.779292,212 Z" id="happysuits"></path>
        </g>
    </g>
</svg>