<?xml version="1.0" encoding="UTF-8"?>
<svg xmlns="http://www.w3.org/2000/svg"
  xmlns:xlink="http://www.w3.org/1999/xlink"
  xmlns:sketch="http://www.bohemiancoding.com/sketch/ns" width="500px" height="114px" viewBox="0 0 500 114" version="1.1">
  <g id="Page-1" stroke="none" stroke-width="1" fill="none" fill-rule="evenodd" sketch:type="MSPage">
    <g id="innovie-logo-57@2x" sketch:type="MSLayerGroup">
      <g id="Page-1" sketch:type="MSShapeGroup">
        <g id="Logo">
          <g id="Group">
            <path d="M166.359524,24.6136364 L166.359524,19.95 L172.060317,19.95 L172.060317,24.3545455 L166.359524,24.3545455 L166.359524,24.6136364 L166.359524,24.6136364 Z M166.359524,79.8 L166.359524,34.2 L172.060317,34.2 L172.060317,80.0590909 L166.359524,80.0590909 L166.359524,79.8 L166.359524,79.8 Z" id="Shape" fill="#000"></path>
            <path d="M234.509921,79.8 L234.509921,48.7090909 C234.509921,45.6 233.473413,43.0090909 231.14127,40.9363636 C229.068254,38.8636364 226.217857,37.8272727 223.36746,37.8272727 L200.305159,37.8272727 C197.195635,37.8272727 194.604365,38.8636364 192.531349,40.9363636 C190.458333,43.0090909 189.162698,45.6 189.162698,48.7090909 L189.162698,79.8 L184.239286,79.8 L184.239286,48.7090909 C184.239286,44.3045455 185.794048,40.6772727 188.903571,37.5681818 C192.013095,34.7181818 195.640873,33.1636364 200.305159,33.1636364 L223.36746,33.1636364 C227.772619,33.1636364 231.659524,34.7181818 234.769048,37.8272727 C237.878571,40.9363636 239.433333,44.8227273 239.433333,49.2272727 L239.433333,79.5409091 L234.509921,79.5409091 L234.509921,79.8 L234.509921,79.8 Z" id="Shape" fill="#000"></path>
            <path d="M299.291667,79.8 L299.291667,48.7090909 C299.291667,45.6 298.255159,43.0090909 295.923016,40.9363636 C293.85,38.8636364 290.999603,37.8272727 288.149206,37.8272727 L265.086905,37.8272727 C261.977381,37.8272727 259.386111,38.8636364 257.313095,40.9363636 C255.240079,43.0090909 253.944444,45.6 253.944444,48.7090909 L253.944444,79.8 L249.021032,79.8 L249.021032,48.7090909 C249.021032,44.3045455 250.575794,40.6772727 253.685317,37.5681818 C256.794841,34.7181818 260.422619,33.1636364 265.086905,33.1636364 L288.149206,33.1636364 C292.554365,33.1636364 296.44127,34.7181818 299.550794,37.8272727 C302.660317,40.9363636 304.215079,44.8227273 304.215079,49.2272727 L304.215079,79.5409091 L299.291667,79.5409091 L299.291667,79.8 L299.291667,79.8 Z" id="Shape" fill="#000"></path>
            <path d="M350.080556,79.8 L325.981746,79.8 C321.576587,79.8 317.689683,78.2454545 314.839286,75.3954545 C311.988889,72.5454545 310.434127,68.6590909 310.434127,64.2545455 L310.434127,48.1909091 C310.434127,43.7863636 311.988889,39.9 314.839286,37.3090909 C317.689683,34.4590909 321.576587,33.1636364 326.240873,33.1636364 L349.821429,33.1636364 C354.226587,33.1636364 358.113492,34.4590909 360.963889,37.3090909 C363.814286,40.1590909 365.369048,43.7863636 365.369048,48.1909091 L365.369048,64.2545455 C365.369048,68.6590909 364.073413,72.5454545 361.223016,75.3954545 C358.372619,78.5045455 354.744841,79.8 350.080556,79.8 L350.080556,79.8 L350.080556,79.8 Z M360.445635,49.2272727 C360.445635,46.1181818 359.409127,43.2681818 357.595238,40.9363636 C355.522222,38.6045455 352.930952,37.5681818 349.821429,37.5681818 L326.240873,37.5681818 C323.131349,37.5681818 320.540079,38.6045455 318.467063,40.9363636 C316.394048,43.2681818 315.616667,45.8590909 315.616667,49.2272727 L315.616667,63.7363636 C315.616667,66.8454545 316.653175,69.6954545 318.467063,71.7681818 C320.540079,74.1 323.131349,75.1363636 326.240873,75.1363636 L349.821429,75.1363636 C352.930952,75.1363636 355.522222,74.1 357.595238,71.7681818 C359.668254,69.4363636 360.445635,66.8454545 360.445635,63.7363636 L360.445635,49.2272727 L360.445635,49.2272727 Z" id="Shape" fill="#000"></path>
            <path d="M398.278175,79.8 L393.354762,79.8 L368.996825,36.5318182 L368.996825,33.4227273 L372.624603,33.4227273 L395.686905,73.8409091 L418.749206,33.4227273 L422.376984,33.4227273 L422.376984,36.2727273 L398.278175,79.8 L398.278175,79.8 Z" id="Shape" fill="#000"></path>
            <path d="M428.855159,24.6136364 L428.855159,19.95 L434.555952,19.95 L434.555952,24.3545455 L428.855159,24.3545455 L428.855159,24.6136364 L428.855159,24.6136364 Z M428.855159,79.8 L428.855159,34.2 L434.555952,34.2 L434.555952,80.0590909 L428.855159,80.0590909 L428.855159,79.8 L428.855159,79.8 Z" id="Shape" fill="#000"></path>
            <path d="M483.012698,64.7727273 L467.205952,64.7727273 L467.205952,60.1090909 L483.012698,60.1090909 C486.640476,60.1090909 489.231746,59.0727273 491.304762,56.7409091 C493.377778,54.6681818 494.155159,51.5590909 494.155159,47.9318182 C494.155159,44.5636364 493.118651,41.9727273 491.045635,39.9 C488.972619,37.8272727 486.381349,36.7909091 483.012698,36.7909091 L458.913889,37.05 C455.804365,37.05 453.213095,38.0863636 451.399206,40.1590909 C449.585317,42.2318182 448.54881,44.8227273 448.54881,47.9318182 L448.54881,63.2181818 C448.54881,66.3272727 449.585317,69.1772727 451.658333,71.25 C453.731349,73.5818182 456.322619,74.6181818 459.432143,74.6181818 L494.155159,74.6181818 L494.155159,79.0227273 L459.432143,79.0227273 C454.767857,79.0227273 450.880952,77.4681818 448.030556,74.6181818 C445.180159,71.7681818 443.625397,67.8818182 443.625397,63.2181818 L443.625397,47.1545455 C443.625397,42.4909091 444.921032,38.8636364 447.771429,36.0136364 C450.621825,33.1636364 454.249603,31.8681818 458.913889,31.8681818 L483.530952,31.8681818 C488.454365,31.8681818 492.34127,33.4227273 495.191667,36.5318182 C497.782937,39.3818182 499.078571,43.5272727 499.078571,48.45 C499.078571,53.1136364 497.52381,56.7409091 494.673413,59.5909091 C491.304762,63.2181818 487.676984,64.7727273 483.012698,64.7727273 L483.012698,64.7727273 L483.012698,64.7727273 Z" id="Shape" fill="#000"></path>
            <g id="Shape">
              <path d="M124.121825,62.9590909 C128.00873,61.4045455 130.6,59.3318182 131.895635,56.4818182 C136.300794,44.5636364 112.720238,24.6136364 79.0337302,11.9181818 C59.8583333,4.66363636 41.7194444,1.55454545 28.7630952,2.07272727 C40.9420635,-2.33181818 64.781746,0.259090909 90.1761905,9.84545455 C123.862698,22.5409091 147.443254,42.4909091 143.038095,54.4090909 C140.965079,59.5909091 134.227778,62.4409091 124.121825,62.9590909 L124.121825,62.9590909 L124.121825,62.9590909 Z" fill="#000"></path>
              <path d="M139.928571,48.7090909 C136.041667,50.2636364 133.450397,52.3363636 132.154762,55.1863636 C127.749603,67.1045455 151.330159,87.0545455 185.016667,99.75 C204.192063,107.004545 222.330952,110.113636 235.287302,109.595455 C223.108333,114 199.268651,111.409091 173.874206,101.822727 C140.187698,89.1272727 116.607143,69.1772727 121.012302,57.2590909 C122.82619,52.0772727 129.822619,49.2272727 139.928571,48.7090909 L139.928571,48.7090909 L139.928571,48.7090909 Z" fill="#000"></path>
              <g id="Group" transform="translate(0.000000, 1.590909)" fill="#000">
                <path d="M95.3587302,63.1818182 C99.2456349,61.6272727 101.836905,59.5545455 102.873413,56.7045455 C107.278571,44.7863636 83.6980159,24.8363636 50.0115079,12.1409091 C31.0952381,5.14545455 12.9563492,1.77727273 0,2.55454545 C12.1789683,-1.85 36.0186508,0.740909091 61.4130952,10.3272727 C95.0996032,23.0227273 118.680159,42.9727273 114.275,54.8909091 C112.201984,59.8136364 105.464683,62.6636364 95.3587302,63.1818182 L95.3587302,63.1818182 L95.3587302,63.1818182 Z" id="Shape"></path>
                <path d="M111.165476,48.9318182 C107.278571,50.4863636 104.687302,52.5590909 103.650794,55.4090909 C99.2456349,67.3272727 122.82619,87.2772727 156.512698,99.9727273 C175.688095,107.227273 193.826984,110.336364 206.783333,109.818182 C194.345238,114.222727 170.505556,111.631818 145.111111,102.045455 C111.424603,89.35 87.8440476,69.4 92.2492063,57.4818182 C94.3222222,52.3 101.059524,49.45 111.165476,48.9318182 L111.165476,48.9318182 L111.165476,48.9318182 Z" id="Shape"></path>
              </g>
            </g>
          </g>
        </g>
      </g>
    </g>
  </g>
</svg> 
