<?xml version="1.0" standalone="no"?>
<!DOCTYPE svg PUBLIC "-//W3C//DTD SVG 20010904//EN"
 "http://www.w3.org/TR/2001/REC-SVG-20010904/DTD/svg10.dtd">
<svg version="1.0" xmlns="http://www.w3.org/2000/svg"
 width="1744.000000pt" height="1744.000000pt" viewBox="0 0 1744.000000 1744.000000"
 preserveAspectRatio="xMidYMid meet">
<metadata>
Created by potrace 1.14, written by Peter Selinger 2001-2017
</metadata>
<g transform="translate(0.000000,1744.000000) scale(0.100000,-0.100000)"
fill="#000000" stroke="none">
<path d="M3596 12483 c-2 -2 -38 -5 -82 -8 -43 -3 -95 -7 -114 -10 -19 -3 -55
-7 -80 -10 -44 -5 -55 -7 -130 -20 -19 -3 -46 -8 -60 -10 -14 -2 -36 -6 -50
-10 -14 -3 -38 -8 -55 -11 -16 -3 -53 -11 -82 -18 -28 -8 -54 -11 -57 -8 -3 3
-6 1 -6 -4 0 -5 -12 -11 -27 -12 -16 -1 -39 -6 -53 -11 -14 -5 -72 -24 -130
-41 -99 -31 -244 -83 -314 -114 -17 -8 -60 -27 -96 -42 -114 -51 -290 -143
-395 -207 -113 -69 -350 -230 -370 -253 -5 -6 -30 -26 -55 -45 -25 -18 -50
-38 -56 -44 -6 -5 -42 -37 -79 -70 -116 -102 -290 -281 -390 -400 -92 -110
-246 -322 -274 -377 -8 -16 -18 -28 -23 -28 -4 0 -8 -7 -8 -15 0 -8 -3 -15 -7
-15 -5 0 -17 -19 -28 -43 -11 -23 -22 -44 -25 -47 -6 -6 -27 -42 -54 -95 -12
-22 -25 -43 -29 -46 -5 -3 -9 -10 -9 -15 -1 -15 -21 -58 -42 -89 -12 -16 -20
-32 -20 -35 2 -7 -8 -32 -44 -110 -16 -36 -39 -92 -51 -125 -13 -33 -28 -71
-34 -85 -5 -14 -11 -29 -13 -35 -1 -5 -16 -53 -33 -105 -18 -52 -39 -122 -47
-155 -9 -33 -20 -78 -25 -100 -12 -45 -16 -64 -25 -115 -4 -19 -9 -39 -12 -45
-3 -5 -7 -21 -7 -35 -1 -14 -5 -40 -9 -58 -5 -19 -9 -43 -11 -55 -3 -27 -14
-110 -20 -157 -11 -84 -16 -152 -19 -248 -2 -57 -7 -106 -10 -109 -3 -4 -1
-12 5 -20 7 -8 8 -13 1 -13 -6 0 -7 -12 -3 -33 5 -18 5 -41 1 -52 -4 -11 -6
-23 -3 -27 2 -4 6 -53 8 -109 4 -100 11 -186 22 -264 3 -22 6 -53 8 -70 1 -16
4 -30 5 -30 1 0 3 -16 5 -35 4 -34 14 -89 22 -120 2 -8 5 -26 8 -40 2 -14 11
-59 20 -100 9 -41 19 -86 21 -99 3 -13 10 -34 16 -45 6 -12 10 -21 8 -21 -2 0
0 -9 3 -20 28 -99 51 -174 59 -195 15 -36 24 -60 38 -100 15 -44 23 -63 49
-122 12 -26 21 -50 21 -53 0 -3 15 -38 34 -78 19 -40 40 -84 46 -97 6 -14 25
-52 43 -85 18 -33 44 -80 57 -105 14 -25 27 -47 30 -50 6 -5 59 -94 70 -115
19 -39 228 -324 294 -400 114 -132 278 -301 376 -385 35 -30 71 -62 79 -70 9
-8 45 -37 81 -65 36 -27 67 -52 70 -55 16 -18 267 -190 276 -190 4 0 22 -11
40 -25 18 -14 35 -25 37 -25 2 0 42 -22 88 -48 70 -40 251 -133 269 -137 3 -1
23 -10 45 -19 146 -64 192 -82 340 -131 109 -36 302 -90 350 -98 17 -3 37 -8
45 -11 8 -3 30 -8 48 -11 66 -11 88 -14 117 -19 17 -3 41 -7 55 -10 14 -3 48
-8 75 -11 28 -2 66 -7 85 -10 114 -18 572 -28 602 -13 10 5 19 4 23 -2 4 -6
11 -7 17 -4 6 4 29 8 52 9 111 6 256 25 396 52 47 9 94 17 106 18 11 1 24 4
30 7 5 3 27 9 49 13 22 5 45 10 50 11 6 2 35 10 65 19 30 9 64 18 75 20 27 6
205 64 230 75 11 5 63 25 115 46 93 36 270 115 300 133 8 5 51 28 95 52 44 23
115 64 158 91 43 26 83 48 88 48 5 0 9 3 9 8 0 4 28 25 63 47 34 22 64 42 67
45 3 3 30 23 60 45 30 22 60 44 67 50 6 5 23 19 37 30 31 24 55 44 120 99 56
46 302 289 356 351 45 52 159 193 185 230 11 15 27 36 36 45 9 10 18 22 20 27
2 5 21 33 42 63 71 103 147 225 147 238 0 6 4 12 8 12 5 0 14 16 22 35 8 19
18 35 22 35 5 0 7 4 3 9 -3 5 -1 12 4 16 13 7 171 333 171 352 0 3 7 19 15 36
13 29 85 224 84 230 0 1 2 9 5 17 16 50 30 96 32 105 1 6 16 62 32 125 17 63
33 131 37 150 3 19 8 46 11 60 2 14 6 34 8 45 2 11 6 34 9 50 30 161 49 404
49 620 -1 135 -8 330 -13 330 0 0 -2 11 -4 25 -14 133 -23 213 -30 250 -3 14
-8 40 -11 59 -3 18 -8 43 -11 55 -2 11 -6 30 -8 41 -2 11 -6 34 -10 50 -4 17
-9 45 -12 63 -3 17 -9 32 -13 32 -4 0 -7 8 -6 18 2 26 -106 368 -142 450 -9
21 -17 40 -18 45 -1 4 -3 9 -4 12 -1 3 -3 8 -4 13 -1 4 -15 34 -30 67 -89 189
-120 252 -133 267 -8 9 -15 22 -17 30 -4 29 -251 417 -286 448 -3 3 -18 23
-35 45 -33 45 -40 53 -75 95 -14 16 -41 48 -60 71 -51 61 -307 317 -369 369
-29 25 -58 50 -64 56 -7 6 -57 45 -112 87 -55 42 -104 80 -110 84 -21 16 -211
141 -240 157 -16 9 -43 25 -60 36 -16 11 -46 26 -65 35 -19 9 -43 23 -53 33
-11 9 -22 16 -26 16 -3 -1 -24 8 -46 19 -22 12 -43 20 -47 19 -3 -1 -12 5 -18
13 -7 8 -19 15 -27 15 -7 0 -40 14 -73 30 -33 17 -60 27 -60 24 0 -4 -8 0 -17
8 -10 8 -38 21 -63 28 -25 7 -49 17 -55 20 -12 9 -232 81 -330 109 -122 34
-186 49 -285 65 -14 3 -25 5 -25 6 0 1 -13 3 -30 5 -16 2 -50 9 -75 15 -25 5
-72 13 -105 16 -33 3 -76 7 -95 10 -109 13 -594 27 -604 17z"/>
<path d="M13426 12483 c-2 -2 -36 -5 -77 -8 -76 -5 -137 -11 -199 -20 -19 -2
-55 -7 -80 -11 -25 -3 -67 -10 -95 -16 -27 -5 -63 -12 -80 -15 -43 -8 -60 -11
-60 -13 0 -1 -12 -3 -26 -5 -14 -2 -45 -9 -70 -16 -24 -7 -48 -13 -54 -15
-165 -36 -465 -145 -662 -240 -51 -24 -97 -44 -103 -44 -5 0 -10 -4 -10 -10 0
-5 -5 -10 -10 -10 -6 0 -48 -21 -93 -47 -45 -25 -91 -51 -102 -58 -60 -33
-219 -138 -223 -147 -2 -5 -8 -8 -13 -8 -5 0 -17 -7 -26 -15 -10 -8 -54 -41
-98 -74 -44 -32 -94 -72 -112 -88 -17 -15 -55 -48 -85 -73 -56 -47 -278 -268
-338 -335 -19 -22 -66 -78 -103 -125 -38 -47 -75 -93 -82 -102 -84 -103 -315
-473 -315 -504 0 -8 -4 -14 -8 -14 -8 0 -74 -135 -127 -260 -15 -36 -33 -78
-41 -95 -16 -38 -64 -165 -69 -185 -2 -8 -13 -44 -25 -80 -23 -73 -86 -309
-94 -355 -3 -16 -7 -40 -10 -51 -5 -23 -15 -83 -21 -124 -2 -14 -6 -38 -9 -55
-3 -16 -8 -55 -11 -85 -4 -30 -8 -71 -10 -90 -26 -230 -22 -566 9 -822 3 -27
8 -67 11 -90 3 -24 8 -54 10 -68 3 -14 8 -36 10 -50 2 -14 11 -59 19 -100 24
-112 26 -124 32 -142 3 -10 7 -30 10 -44 3 -15 9 -35 15 -45 5 -10 8 -22 8
-26 -1 -4 0 -15 4 -23 3 -8 9 -28 13 -45 9 -37 8 -34 22 -68 7 -16 12 -32 12
-37 0 -5 5 -21 12 -37 6 -15 12 -33 13 -38 11 -47 89 -230 174 -405 96 -198
291 -514 373 -604 10 -11 20 -28 24 -38 3 -10 9 -18 14 -18 4 0 21 -17 37 -38
57 -78 122 -149 258 -286 121 -122 183 -179 279 -258 120 -99 348 -260 446
-314 19 -10 37 -21 40 -24 15 -16 399 -209 424 -214 6 -2 29 -10 51 -20 22
-10 56 -24 75 -31 19 -7 44 -16 55 -21 11 -4 22 -8 25 -9 3 -1 12 -4 20 -8 34
-13 149 -49 195 -62 146 -39 202 -54 225 -59 14 -2 59 -11 100 -20 87 -17 258
-44 280 -44 8 0 31 -3 50 -6 112 -18 532 -26 680 -12 36 3 90 8 120 10 67 6
125 14 205 28 33 5 74 12 90 15 101 15 464 112 565 151 8 3 17 6 20 7 3 1 22
9 44 18 21 9 41 17 43 17 13 0 139 54 144 62 3 6 8 9 10 8 10 -4 59 13 59 21
0 5 7 9 15 9 20 0 273 133 370 194 97 61 270 179 301 205 17 14 55 44 83 66
54 41 60 46 152 127 76 65 254 244 314 313 28 32 62 71 78 87 15 16 27 32 27
37 0 5 7 15 16 22 14 12 87 106 124 159 8 13 21 29 28 36 7 8 10 14 5 14 -4 0
0 5 10 11 9 5 17 13 17 18 0 4 29 52 65 106 36 55 65 105 65 111 0 7 4 14 9
16 5 2 37 57 71 123 34 66 65 125 68 130 4 6 7 12 7 15 1 6 23 56 53 120 27
58 57 134 94 240 16 47 32 92 35 100 3 8 7 20 9 25 1 6 12 44 24 85 11 41 23
86 26 99 3 14 7 28 9 31 3 5 33 136 50 220 2 8 4 17 5 20 1 3 2 9 1 14 -1 5 3
34 10 65 7 31 13 74 15 96 1 22 5 54 8 70 8 45 16 144 21 262 2 57 6 107 10
112 3 5 1 12 -4 15 -5 3 -6 21 -1 40 4 19 6 37 4 39 -2 2 -6 61 -9 133 -4 71
-8 143 -9 159 -2 17 -7 64 -11 105 -4 41 -9 84 -12 95 -2 11 -6 38 -9 60 -5
43 -9 65 -19 105 -3 14 -8 36 -10 50 -3 20 -23 108 -50 223 -6 28 -54 186 -76
252 -21 63 -59 161 -90 232 -11 24 -19 45 -19 49 0 3 -26 58 -57 122 -31 64
-57 119 -58 122 0 3 -8 16 -17 30 -8 14 -22 37 -29 51 -72 137 -168 285 -287
443 -42 56 -81 106 -87 112 -5 7 -26 31 -45 55 -76 94 -322 346 -388 396 -16
12 -41 34 -56 48 -37 34 -150 123 -216 169 -30 22 -56 43 -58 48 -2 4 -9 8
-16 8 -7 0 -21 9 -31 20 -10 11 -27 22 -38 26 -11 4 -30 15 -41 25 -11 11 -26
19 -33 19 -7 0 -13 5 -13 10 0 6 -4 10 -9 10 -5 0 -38 18 -74 40 -103 62 -281
152 -412 208 -117 50 -304 121 -336 127 -9 2 -39 11 -65 20 -27 9 -56 18 -64
20 -8 2 -58 14 -110 28 -52 14 -111 27 -130 31 -19 3 -57 10 -85 16 -27 6 -63
13 -80 15 -16 3 -48 8 -70 11 -22 4 -51 8 -65 10 -14 1 -54 6 -90 10 -36 3
-89 7 -117 8 -29 0 -53 3 -53 6 0 5 -429 8 -434 3z m464 -807 c362 -30 697
-124 1060 -299 58 -27 107 -54 108 -58 2 -5 12 -9 23 -9 10 0 19 -3 19 -8 0
-4 17 -16 38 -27 58 -31 147 -87 150 -97 2 -4 8 -8 13 -8 6 0 15 -5 22 -10 7
-6 60 -47 120 -91 59 -44 107 -85 107 -90 0 -5 5 -9 11 -9 7 0 24 -11 38 -26
14 -14 60 -58 101 -98 100 -97 213 -222 272 -301 4 -5 18 -23 31 -40 13 -16
43 -59 67 -95 24 -36 47 -66 52 -68 4 -2 8 -8 8 -14 0 -5 8 -22 19 -36 52 -74
187 -340 239 -472 66 -167 146 -444 166 -575 3 -22 8 -53 11 -70 22 -140 29
-247 29 -460 0 -171 -7 -310 -19 -374 -1 -9 -6 -38 -9 -64 -4 -26 -11 -71 -17
-100 -6 -29 -12 -63 -14 -77 -2 -14 -11 -52 -20 -85 -9 -33 -18 -67 -20 -76
-9 -41 -49 -164 -86 -264 -63 -168 -222 -489 -266 -533 -7 -7 -13 -20 -13 -28
0 -8 -4 -14 -8 -14 -4 0 -16 -15 -27 -32 -80 -139 -318 -412 -481 -556 -108
-95 -175 -149 -259 -207 -38 -27 -73 -54 -77 -60 -4 -5 -8 -6 -8 -1 0 4 -16
-4 -35 -18 -74 -57 -309 -182 -455 -242 -36 -14 -76 -31 -90 -37 -14 -6 -27
-11 -30 -12 -16 -4 -88 -28 -105 -34 -26 -11 -165 -52 -190 -56 -11 -2 -21 -4
-22 -5 -3 -3 -7 -4 -53 -13 -19 -4 -46 -9 -60 -12 -14 -3 -36 -8 -50 -10 -14
-2 -36 -6 -50 -9 -71 -14 -152 -24 -231 -30 -19 -1 -40 -5 -45 -7 -11 -6 -426
-2 -469 4 -16 3 -61 8 -100 11 -68 7 -110 13 -110 16 0 1 -13 3 -30 5 -48 5
-189 33 -215 43 -18 6 -28 9 -60 15 -14 3 -38 10 -55 17 -16 6 -30 10 -30 9 0
-3 -102 29 -130 41 -11 4 -36 13 -55 20 -19 7 -49 19 -67 26 -17 8 -35 14 -40
14 -4 0 -34 13 -65 29 -32 16 -58 27 -58 23 0 -4 -4 -2 -8 3 -4 6 -34 23 -67
38 -72 34 -307 173 -332 196 -10 10 -25 20 -33 23 -15 6 -152 111 -229 176
-102 87 -286 277 -374 387 -27 33 -54 67 -61 75 -6 9 -27 38 -46 65 -18 28
-36 52 -39 55 -3 3 -12 17 -20 33 -8 15 -18 27 -23 27 -4 0 -8 4 -8 10 0 5
-18 38 -40 72 -22 35 -40 69 -40 76 0 6 -3 12 -8 12 -4 0 -13 15 -21 32 -8 18
-21 41 -29 51 -8 9 -13 17 -9 17 3 0 -15 40 -39 90 -24 49 -44 91 -44 94 0 3
-4 15 -9 28 -5 13 -10 28 -11 33 -1 6 -6 15 -11 21 -5 7 -12 20 -14 30 -2 11
-17 55 -33 99 -38 108 -34 97 -51 165 -7 25 -13 52 -16 60 -13 51 -45 212 -50
250 -7 50 -13 85 -15 85 -2 0 -7 60 -15 185 -12 174 -9 408 6 448 5 13 5 21 0
18 -4 -3 -4 16 0 42 5 26 11 67 13 92 2 25 5 45 6 45 1 0 3 16 6 35 17 143
107 464 175 625 7 17 13 32 14 35 14 41 127 273 162 332 71 119 91 149 156
242 143 203 323 397 532 575 103 87 304 223 459 309 71 40 130 72 132 72 2 0
38 16 80 35 41 19 78 35 81 35 3 0 19 7 36 15 28 12 102 40 132 49 6 2 17 6
25 9 21 8 93 31 105 33 6 1 35 9 66 18 55 16 74 21 133 32 16 2 32 7 36 9 4 2
25 7 46 10 21 2 50 7 64 10 14 3 41 7 60 10 19 3 51 7 70 10 19 3 68 7 109 10
41 3 76 6 77 8 5 5 357 -1 434 -7z"/>
</g>
</svg>
