<svg viewBox="0 0 77 32" fill="none" width="500px" height="114px"
  xmlns="http://www.w3.org/2000/svg">
  <path d="m12.27 3.975-1.272 5.02h2.22c.323 0 .532.073.626.22.094.134.094.362 0 .683l-.707 2.309c-.174.602-.531.903-1.07.903H9.929l-4.4 17.186c-.161.602-.572.904-1.231.904H1.108c-.444 0-.754-.127-.928-.382-.175-.254-.222-.569-.142-.943l4.3-16.765H2.762c-.283 0-.47-.067-.565-.2-.08-.148-.074-.409.02-.784l.666-2.348c.094-.322.209-.53.343-.623a.94.94 0 0 1 .565-.16h1.595l1.312-5.06c.161-.602.572-.903 1.231-.903h3.431c.754 0 1.057.314.909.943ZM17.235 20.68c.955-.603 1.776-1.553 2.462-2.852.7-1.298 1.05-2.49 1.05-3.573 0-.429-.04-.716-.121-.864-.068-.16-.202-.24-.404-.24s-.437.214-.706.642a8.042 8.042 0 0 0-.626 1.285c-.538 1.392-1.09 3.259-1.655 5.601Zm-.969 4.477c-.121.629-.155 1.037-.1 1.224.066.174.261.315.584.422.458-.094 1.38-.877 2.766-2.35a.626.626 0 0 1 .403-.18.648.648 0 0 1 .424.1l2.019 1.225a.77.77 0 0 1 .343.442c.08.2.087.361.02.482-.485.937-1.601 2.115-3.35 3.533-1.75 1.42-2.96 2.062-3.634 1.928-2.637-.576-4.137-1.7-4.5-3.373-.243-1.178-.155-2.972.262-5.38a39.692 39.692 0 0 1 1.937-7.128c.888-2.343 1.797-3.942 2.725-4.799a8.993 8.993 0 0 1 1.938-1.425 5.996 5.996 0 0 1 2.12-.703 3.734 3.734 0 0 1 2.098.281c1.924.817 2.886 2.229 2.886 4.237 0 1.365-.43 2.844-1.291 4.437a16.825 16.825 0 0 1-3.371 4.296c-1.386 1.272-2.812 2.182-4.279 2.73ZM37.166.944l-7.509 29.352c-.161.602-.578.904-1.251.904h-3.169c-.444 0-.754-.127-.928-.382-.189-.254-.243-.569-.162-.943L31.595.903C31.756.301 32.167 0 32.826 0h3.431c.754 0 1.056.315.909.944ZM47.177.944l-7.508 29.352c-.162.602-.579.904-1.252.904h-3.169c-.444 0-.753-.127-.928-.382-.188-.254-.242-.569-.162-.943L41.606.903C41.768.301 42.178 0 42.837 0h3.432c.753 0 1.056.315.908.944ZM58.871 3.493c0-.803.29-1.485.868-2.047.579-.563 1.306-.844 2.18-.844h.585c.673 0 1.299.301 1.878.904.592.589.888 1.251.888 1.987 0 .803-.303 1.48-.909 2.028-.592.536-1.332.803-2.22.803h-.545c-.726 0-1.366-.28-1.917-.843-.538-.576-.808-1.238-.808-1.988Zm4.461 6.445-5.369 20.358c-.161.602-.578.904-1.251.904h-3.35c-.754 0-1.057-.315-.91-.944l5.39-20.358c.161-.602.572-.903 1.231-.903h3.35c.754 0 1.057.314.909.943ZM75.355 3.975l-1.272 5.02h2.22c.324 0 .532.073.626.22.094.134.094.362 0 .683l-.706 2.309c-.175.602-.532.903-1.07.903h-2.14l-4.4 17.186c-.16.602-.571.904-1.23.904h-3.19c-.444 0-.753-.127-.928-.382-.175-.254-.222-.569-.141-.943l4.299-16.765h-1.575c-.282 0-.47-.067-.565-.2-.08-.148-.074-.409.02-.784l.667-2.348c.094-.322.208-.53.343-.623a.94.94 0 0 1 .565-.16h1.594l1.312-5.06c.162-.602.572-.903 1.231-.903h3.432c.753 0 1.056.314.908.943Z" fill="currentColor"></path>
</svg>
